<?xml version="1.0" encoding="utf-8"?>
<svg width="500" height="150" viewBox="3.593 64.993 570.407 189.007" fill="none" xmlns="http://www.w3.org/2000/svg">
  <path d="M 56.048 137.7 C 52.648 137.7 49.448 138.3 46.448 139.5 C 43.515 140.7 40.948 142.533 38.748 145 C 36.548 147.467 34.782 150.6 33.448 154.4 C 32.182 158.133 31.548 162.567 31.548 167.7 C 31.548 172.833 32.182 177.3 33.448 181.1 C 34.782 184.833 36.548 187.933 38.748 190.4 C 40.948 192.867 43.515 194.7 46.448 195.9 C 49.448 197.1 52.648 197.7 56.048 197.7 C 59.448 197.7 62.615 197.1 65.548 195.9 C 68.548 194.7 71.148 192.867 73.348 190.4 C 75.548 187.933 77.282 184.833 78.548 181.1 C 79.882 177.3 80.548 172.833 80.548 167.7 C 80.548 162.567 79.882 158.133 78.548 154.4 C 77.282 150.6 75.548 147.467 73.348 145 C 71.148 142.533 68.548 140.7 65.548 139.5 C 62.615 138.3 59.448 137.7 56.048 137.7 Z M 56.048 130.7 C 62.048 130.7 67.482 131.5 72.348 133.1 C 77.282 134.7 81.482 137.067 84.948 140.2 C 88.482 143.333 91.215 147.2 93.148 151.8 C 95.082 156.4 96.048 161.7 96.048 167.7 C 96.048 173.7 95.082 179 93.148 183.6 C 91.215 188.2 88.482 192.067 84.948 195.2 C 81.482 198.333 77.282 200.7 72.348 202.3 C 67.482 203.9 62.048 204.7 56.048 204.7 C 50.048 204.7 44.582 203.9 39.648 202.3 C 34.715 200.7 30.482 198.333 26.948 195.2 C 23.482 192.067 20.782 188.2 18.848 183.6 C 16.982 179 16.048 173.7 16.048 167.7 C 16.048 161.7 16.982 156.4 18.848 151.8 C 20.782 147.2 23.482 143.333 26.948 140.2 C 30.482 137.067 34.715 134.7 39.648 133.1 C 44.582 131.5 50.048 130.7 56.048 130.7 Z M 147.588 157.7 L 135.588 157.7 C 131.054 157.7 127.588 158.933 125.188 161.4 C 122.788 163.8 121.588 167.4 121.588 172.2 L 121.588 202.7 L 107.588 202.7 L 107.588 172.2 C 107.588 165.4 109.721 160.133 113.988 156.4 C 118.321 152.6 124.521 150.7 132.588 150.7 L 147.588 150.7 L 147.588 157.7 Z M 193.021 195.7 L 193.021 157.7 L 180.521 157.7 C 178.254 157.7 176.154 158.067 174.221 158.8 C 172.354 159.467 170.721 160.567 169.321 162.1 C 167.988 163.633 166.921 165.6 166.121 168 C 165.388 170.4 165.021 173.3 165.021 176.7 C 165.021 180.1 165.388 183 166.121 185.4 C 166.921 187.8 167.988 189.767 169.321 191.3 C 170.721 192.833 172.354 193.967 174.221 194.7 C 176.154 195.367 178.254 195.7 180.521 195.7 L 193.021 195.7 Z M 180.521 202.7 C 175.921 202.7 171.721 202.1 167.921 200.9 C 164.188 199.7 160.988 197.967 158.321 195.7 C 155.654 193.433 153.588 190.7 152.121 187.5 C 150.721 184.3 150.021 180.7 150.021 176.7 C 150.021 172.7 150.721 169.1 152.121 165.9 C 153.588 162.7 155.654 159.967 158.321 157.7 C 160.988 155.433 164.188 153.7 167.921 152.5 C 171.721 151.3 175.921 150.7 180.521 150.7 L 193.021 150.7 L 193.021 132.7 L 207.021 132.7 L 207.021 202.7 L 180.521 202.7 Z M 250.978 197.7 C 254.245 197.7 257.278 197.133 260.078 196 C 262.945 194.867 265.745 193.267 268.478 191.2 L 272.478 197.2 C 271.211 198.333 269.711 199.367 267.978 200.3 C 266.311 201.233 264.478 202.033 262.478 202.7 C 260.545 203.3 258.511 203.767 256.378 204.1 C 254.245 204.5 252.111 204.7 249.978 204.7 C 245.245 204.7 240.911 204.067 236.978 202.8 C 233.111 201.6 229.811 199.833 227.078 197.5 C 224.345 195.1 222.211 192.167 220.678 188.7 C 219.211 185.233 218.478 181.233 218.478 176.7 C 218.478 172.233 219.178 168.267 220.578 164.8 C 222.045 161.267 224.045 158.333 226.578 156 C 229.178 153.6 232.245 151.8 235.778 150.6 C 239.311 149.333 243.211 148.7 247.478 148.7 C 251.478 148.7 255.245 149.3 258.778 150.5 C 262.311 151.7 265.378 153.467 267.978 155.8 C 270.578 158.067 272.645 160.833 274.178 164.1 C 275.711 167.367 276.478 171.067 276.478 175.2 L 276.478 182.2 L 233.778 182.2 C 234.578 187.733 236.478 191.7 239.478 194.1 C 242.545 196.5 246.378 197.7 250.978 197.7 Z M 247.478 155.2 C 245.545 155.2 243.745 155.567 242.078 156.3 C 240.411 157.033 238.945 158.2 237.678 159.8 C 236.478 161.4 235.478 163.467 234.678 166 C 233.945 168.533 233.545 171.6 233.478 175.2 L 261.478 175.2 C 261.478 171.733 261.078 168.733 260.278 166.2 C 259.478 163.667 258.411 161.6 257.078 160 C 255.811 158.333 254.311 157.133 252.578 156.4 C 250.911 155.6 249.211 155.2 247.478 155.2 Z M 327.47 157.7 L 315.47 157.7 C 310.937 157.7 307.47 158.933 305.07 161.4 C 302.67 163.8 301.47 167.4 301.47 172.2 L 301.47 202.7 L 287.47 202.7 L 287.47 172.2 C 287.47 165.4 289.604 160.133 293.87 156.4 C 298.204 152.6 304.404 150.7 312.47 150.7 L 327.47 150.7 L 327.47 157.7 Z M 339.931 151.7 C 339.931 145.167 341.965 140.033 346.031 136.3 C 350.098 132.567 355.898 130.7 363.431 130.7 C 365.965 130.7 368.498 131.033 371.031 131.7 C 373.631 132.367 375.931 133.2 377.931 134.2 L 374.931 140.7 C 373.665 139.967 372.098 139.3 370.231 138.7 C 368.365 138.033 366.431 137.7 364.431 137.7 C 363.031 137.7 361.698 137.967 360.431 138.5 C 359.165 139.033 358.031 139.867 357.031 141 C 356.098 142.067 355.331 143.5 354.731 145.3 C 354.198 147.1 353.931 149.233 353.931 151.7 L 353.931 152.7 L 369.431 152.7 L 369.431 159.7 L 353.931 159.7 L 353.931 202.7 L 339.931 202.7 L 339.931 159.7 L 330.431 159.7 L 330.431 152.7 L 339.931 152.7 L 339.931 151.7 Z M 394.451 202.7 L 380.451 202.7 L 380.451 132.7 L 394.451 132.7 L 394.451 202.7 Z M 436.478 198.2 C 438.611 198.2 440.611 197.8 442.478 197 C 444.345 196.2 445.978 194.967 447.378 193.3 C 448.778 191.567 449.878 189.333 450.678 186.6 C 451.545 183.867 451.978 180.567 451.978 176.7 C 451.978 172.833 451.545 169.533 450.678 166.8 C 449.878 164.067 448.778 161.867 447.378 160.2 C 445.978 158.467 444.345 157.2 442.478 156.4 C 440.611 155.6 438.611 155.2 436.478 155.2 C 434.345 155.2 432.345 155.6 430.478 156.4 C 428.611 157.2 426.978 158.467 425.578 160.2 C 424.178 161.867 423.045 164.067 422.178 166.8 C 421.378 169.533 420.978 172.833 420.978 176.7 C 420.978 180.567 421.378 183.867 422.178 186.6 C 423.045 189.333 424.178 191.567 425.578 193.3 C 426.978 194.967 428.611 196.2 430.478 197 C 432.345 197.8 434.345 198.2 436.478 198.2 Z M 436.478 148.7 C 440.945 148.7 445.045 149.333 448.778 150.6 C 452.578 151.8 455.811 153.6 458.478 156 C 461.145 158.333 463.211 161.267 464.678 164.8 C 466.211 168.267 466.978 172.233 466.978 176.7 C 466.978 181.233 466.211 185.233 464.678 188.7 C 463.211 192.167 461.145 195.1 458.478 197.5 C 455.811 199.833 452.578 201.6 448.778 202.8 C 445.045 204.067 440.945 204.7 436.478 204.7 C 431.945 204.7 427.811 204.067 424.078 202.8 C 420.345 201.6 417.145 199.833 414.478 197.5 C 411.811 195.1 409.711 192.167 408.178 188.7 C 406.711 185.233 405.978 181.233 405.978 176.7 C 405.978 172.233 406.711 168.267 408.178 164.8 C 409.711 161.267 411.811 158.333 414.478 156 C 417.145 153.6 420.345 151.8 424.078 150.6 C 427.811 149.333 431.945 148.7 436.478 148.7 Z M 534.545 193.2 L 535.545 193.2 L 547.045 150.7 L 561.545 150.7 L 547.545 202.7 L 526.545 202.7 L 517.045 166.7 L 516.045 166.7 L 506.545 202.7 L 485.545 202.7 L 471.545 150.7 L 486.045 150.7 L 497.545 193.2 L 498.545 193.2 L 508.545 155.7 L 524.545 155.7 L 534.545 193.2 Z" fill="#59B4FF"/>
  <path d="M 319.81 87.267 C 186.221 49.283 127.822 100.657 110.318 142.249 C 214.413 53.967 279.224 97.175 357.87 110.052 C 480.558 130.14 507.286 128.676 555.027 114.91 C 472.486 125.732 385.033 103.143 319.81 87.267 Z" fill="#59B4FF"/>
  <path d="M 36.521 244.7 L 34.24 238.356 L 25.505 238.356 L 23.271 244.7 L 19.333 244.7 L 27.88 221.762 L 31.943 221.762 L 40.49 244.7 L 36.521 244.7 Z M 33.255 235.138 L 31.115 228.919 C 30.958 228.502 30.74 227.846 30.458 226.95 C 30.188 226.054 30 225.398 29.896 224.981 C 29.615 226.262 29.203 227.664 28.662 229.184 L 26.599 235.138 L 33.255 235.138 Z M 71.302 244.7 L 70.787 242.434 L 70.599 242.434 C 70.089 243.236 69.359 243.867 68.412 244.325 C 67.474 244.783 66.401 245.012 65.193 245.012 C 63.099 245.012 61.537 244.492 60.505 243.45 C 59.474 242.408 58.958 240.83 58.958 238.716 L 58.958 227.419 L 62.662 227.419 L 62.662 238.075 C 62.662 239.398 62.932 240.393 63.474 241.059 C 64.016 241.716 64.865 242.044 66.021 242.044 C 67.563 242.044 68.693 241.585 69.412 240.669 C 70.141 239.742 70.505 238.195 70.505 236.028 L 70.505 227.419 L 74.193 227.419 L 74.193 244.7 L 71.302 244.7 Z M 101.865 242.044 C 102.761 242.044 103.657 241.903 104.552 241.622 L 104.552 244.388 C 104.146 244.565 103.62 244.71 102.974 244.825 C 102.339 244.95 101.677 245.012 100.99 245.012 C 97.51 245.012 95.771 243.179 95.771 239.512 L 95.771 230.2 L 93.412 230.2 L 93.412 228.575 L 95.943 227.231 L 97.193 223.575 L 99.458 223.575 L 99.458 227.419 L 104.38 227.419 L 104.38 230.2 L 99.458 230.2 L 99.458 239.45 C 99.458 240.335 99.677 240.992 100.115 241.419 C 100.563 241.835 101.146 242.044 101.865 242.044 Z M 139.349 236.028 C 139.349 238.851 138.625 241.054 137.177 242.638 C 135.729 244.221 133.714 245.012 131.13 245.012 C 129.516 245.012 128.089 244.648 126.849 243.919 C 125.61 243.19 124.657 242.143 123.99 240.778 C 123.323 239.414 122.99 237.83 122.99 236.028 C 122.99 233.226 123.709 231.039 125.146 229.466 C 126.584 227.893 128.61 227.106 131.224 227.106 C 133.724 227.106 135.703 227.914 137.162 229.528 C 138.62 231.132 139.349 233.299 139.349 236.028 Z M 126.771 236.028 C 126.771 240.018 128.245 242.012 131.193 242.012 C 134.11 242.012 135.568 240.018 135.568 236.028 C 135.568 232.08 134.099 230.106 131.162 230.106 C 129.62 230.106 128.5 230.617 127.802 231.638 C 127.115 232.658 126.771 234.122 126.771 236.028 Z M 174.146 244.7 L 170.459 244.7 L 170.459 234.044 C 170.459 232.721 170.209 231.736 169.709 231.091 C 169.209 230.434 168.427 230.106 167.365 230.106 C 165.948 230.106 164.907 230.57 164.24 231.497 C 163.584 232.414 163.256 233.945 163.256 236.091 L 163.256 244.7 L 159.584 244.7 L 159.584 227.419 L 162.459 227.419 L 162.974 229.684 L 163.162 229.684 C 163.641 228.861 164.334 228.226 165.24 227.778 C 166.157 227.33 167.162 227.106 168.256 227.106 C 170.912 227.106 172.672 228.012 173.537 229.825 L 173.787 229.825 C 174.297 228.971 175.016 228.304 175.943 227.825 C 176.87 227.346 177.933 227.106 179.13 227.106 C 181.193 227.106 182.693 227.627 183.63 228.669 C 184.578 229.71 185.052 231.299 185.052 233.434 L 185.052 244.7 L 181.38 244.7 L 181.38 234.044 C 181.38 232.721 181.125 231.736 180.615 231.091 C 180.115 230.434 179.334 230.106 178.271 230.106 C 176.844 230.106 175.797 230.554 175.13 231.45 C 174.474 232.335 174.146 233.7 174.146 235.544 L 174.146 244.7 Z M 216.99 244.7 L 216.256 242.294 L 216.13 242.294 C 215.297 243.346 214.459 244.065 213.615 244.45 C 212.771 244.825 211.688 245.012 210.365 245.012 C 208.667 245.012 207.339 244.554 206.38 243.638 C 205.433 242.721 204.959 241.424 204.959 239.747 C 204.959 237.966 205.62 236.622 206.943 235.716 C 208.266 234.809 210.282 234.315 212.99 234.231 L 215.974 234.138 L 215.974 233.216 C 215.974 232.111 215.714 231.289 215.193 230.747 C 214.683 230.195 213.886 229.919 212.802 229.919 C 211.917 229.919 211.068 230.049 210.256 230.309 C 209.443 230.57 208.662 230.877 207.912 231.231 L 206.724 228.606 C 207.662 228.117 208.688 227.747 209.802 227.497 C 210.917 227.236 211.969 227.106 212.959 227.106 C 215.157 227.106 216.813 227.585 217.927 228.544 C 219.052 229.502 219.615 231.007 219.615 233.059 L 219.615 244.7 L 216.99 244.7 Z M 211.521 242.2 C 212.854 242.2 213.922 241.83 214.724 241.091 C 215.537 240.341 215.943 239.294 215.943 237.95 L 215.943 236.45 L 213.724 236.544 C 211.995 236.606 210.735 236.898 209.943 237.419 C 209.162 237.929 208.771 238.716 208.771 239.778 C 208.771 240.549 209 241.148 209.459 241.575 C 209.917 241.992 210.604 242.2 211.521 242.2 Z M 247.177 242.044 C 248.073 242.044 248.969 241.903 249.865 241.622 L 249.865 244.388 C 249.459 244.565 248.933 244.71 248.287 244.825 C 247.651 244.95 246.99 245.012 246.302 245.012 C 242.823 245.012 241.084 243.179 241.084 239.512 L 241.084 230.2 L 238.724 230.2 L 238.724 228.575 L 241.256 227.231 L 242.506 223.575 L 244.771 223.575 L 244.771 227.419 L 249.693 227.419 L 249.693 230.2 L 244.771 230.2 L 244.771 239.45 C 244.771 240.335 244.99 240.992 245.427 241.419 C 245.875 241.835 246.459 242.044 247.177 242.044 Z M 276.88 245.012 C 274.193 245.012 272.089 244.231 270.568 242.669 C 269.058 241.096 268.302 238.934 268.302 236.184 C 268.302 233.361 269.006 231.143 270.412 229.528 C 271.818 227.914 273.75 227.106 276.209 227.106 C 278.49 227.106 280.292 227.799 281.615 229.184 C 282.938 230.57 283.599 232.476 283.599 234.903 L 283.599 236.888 L 272.084 236.888 C 272.136 238.565 272.589 239.856 273.443 240.762 C 274.297 241.658 275.5 242.106 277.052 242.106 C 278.073 242.106 279.021 242.012 279.896 241.825 C 280.782 241.627 281.729 241.304 282.74 240.856 L 282.74 243.841 C 281.844 244.268 280.938 244.57 280.021 244.747 C 279.104 244.924 278.058 245.012 276.88 245.012 Z M 276.209 229.888 C 275.042 229.888 274.104 230.257 273.396 230.997 C 272.698 231.736 272.282 232.815 272.146 234.231 L 279.99 234.231 C 279.969 232.804 279.625 231.726 278.959 230.997 C 278.292 230.257 277.375 229.888 276.209 229.888 Z M 334.521 242.044 C 335.417 242.044 336.313 241.903 337.209 241.622 L 337.209 244.388 C 336.802 244.565 336.276 244.71 335.63 244.825 C 334.995 244.95 334.334 245.012 333.646 245.012 C 330.167 245.012 328.427 243.179 328.427 239.512 L 328.427 230.2 L 326.068 230.2 L 326.068 228.575 L 328.599 227.231 L 329.849 223.575 L 332.115 223.575 L 332.115 227.419 L 337.037 227.419 L 337.037 230.2 L 332.115 230.2 L 332.115 239.45 C 332.115 240.335 332.334 240.992 332.771 241.419 C 333.219 241.835 333.802 242.044 334.521 242.044 Z M 372.006 236.028 C 372.006 238.851 371.282 241.054 369.834 242.638 C 368.386 244.221 366.37 245.012 363.787 245.012 C 362.172 245.012 360.745 244.648 359.506 243.919 C 358.266 243.19 357.313 242.143 356.646 240.778 C 355.979 239.414 355.646 237.83 355.646 236.028 C 355.646 233.226 356.365 231.039 357.802 229.466 C 359.24 227.893 361.266 227.106 363.88 227.106 C 366.38 227.106 368.36 227.914 369.818 229.528 C 371.276 231.132 372.006 233.299 372.006 236.028 Z M 359.427 236.028 C 359.427 240.018 360.901 242.012 363.849 242.012 C 366.766 242.012 368.224 240.018 368.224 236.028 C 368.224 232.08 366.756 230.106 363.818 230.106 C 362.276 230.106 361.157 230.617 360.459 231.638 C 359.771 232.658 359.427 234.122 359.427 236.028 Z M 428.162 239.778 C 428.162 241.466 427.547 242.762 426.318 243.669 C 425.089 244.565 423.328 245.012 421.037 245.012 C 418.735 245.012 416.886 244.664 415.49 243.966 L 415.49 240.794 C 417.521 241.731 419.412 242.2 421.162 242.2 C 423.422 242.2 424.552 241.518 424.552 240.153 C 424.552 239.716 424.427 239.351 424.177 239.059 C 423.927 238.768 423.516 238.466 422.943 238.153 C 422.37 237.841 421.573 237.486 420.552 237.091 C 418.563 236.32 417.214 235.549 416.506 234.778 C 415.808 234.007 415.459 233.007 415.459 231.778 C 415.459 230.299 416.052 229.153 417.24 228.341 C 418.438 227.518 420.063 227.106 422.115 227.106 C 424.146 227.106 426.068 227.518 427.88 228.341 L 426.693 231.106 C 424.828 230.335 423.261 229.95 421.99 229.95 C 420.052 229.95 419.084 230.502 419.084 231.606 C 419.084 232.148 419.334 232.606 419.834 232.981 C 420.344 233.356 421.448 233.872 423.146 234.528 C 424.573 235.08 425.61 235.585 426.256 236.044 C 426.901 236.502 427.38 237.033 427.693 237.638 C 428.006 238.231 428.162 238.945 428.162 239.778 Z M 455.115 245.012 C 452.5 245.012 450.511 244.252 449.146 242.731 C 447.792 241.2 447.115 239.007 447.115 236.153 C 447.115 233.247 447.823 231.012 449.24 229.45 C 450.667 227.888 452.724 227.106 455.412 227.106 C 457.235 227.106 458.875 227.445 460.334 228.122 L 459.224 231.075 C 457.672 230.471 456.391 230.169 455.38 230.169 C 452.391 230.169 450.896 232.153 450.896 236.122 C 450.896 238.059 451.266 239.518 452.006 240.497 C 452.756 241.466 453.849 241.95 455.287 241.95 C 456.922 241.95 458.469 241.544 459.927 240.731 L 459.927 243.934 C 459.271 244.32 458.568 244.596 457.818 244.762 C 457.078 244.929 456.177 245.012 455.115 245.012 Z M 490.802 244.7 L 490.068 242.294 L 489.943 242.294 C 489.11 243.346 488.271 244.065 487.427 244.45 C 486.584 244.825 485.5 245.012 484.177 245.012 C 482.479 245.012 481.151 244.554 480.193 243.638 C 479.245 242.721 478.771 241.424 478.771 239.747 C 478.771 237.966 479.433 236.622 480.756 235.716 C 482.078 234.809 484.094 234.315 486.802 234.231 L 489.787 234.138 L 489.787 233.216 C 489.787 232.111 489.526 231.289 489.006 230.747 C 488.495 230.195 487.698 229.919 486.615 229.919 C 485.729 229.919 484.88 230.049 484.068 230.309 C 483.256 230.57 482.474 230.877 481.724 231.231 L 480.537 228.606 C 481.474 228.117 482.5 227.747 483.615 227.497 C 484.729 227.236 485.782 227.106 486.771 227.106 C 488.969 227.106 490.625 227.585 491.74 228.544 C 492.865 229.502 493.427 231.007 493.427 233.059 L 493.427 244.7 L 490.802 244.7 Z M 485.334 242.2 C 486.667 242.2 487.735 241.83 488.537 241.091 C 489.349 240.341 489.756 239.294 489.756 237.95 L 489.756 236.45 L 487.537 236.544 C 485.808 236.606 484.547 236.898 483.756 237.419 C 482.974 237.929 482.584 238.716 482.584 239.778 C 482.584 240.549 482.813 241.148 483.271 241.575 C 483.729 241.992 484.417 242.2 485.334 242.2 Z M 518.224 244.7 L 514.552 244.7 L 514.552 220.388 L 518.224 220.388 L 518.224 244.7 Z M 547.037 245.012 C 544.349 245.012 542.245 244.231 540.724 242.669 C 539.214 241.096 538.459 238.934 538.459 236.184 C 538.459 233.361 539.162 231.143 540.568 229.528 C 541.974 227.914 543.907 227.106 546.365 227.106 C 548.646 227.106 550.448 227.799 551.771 229.184 C 553.094 230.57 553.756 232.476 553.756 234.903 L 553.756 236.888 L 542.24 236.888 C 542.292 238.565 542.745 239.856 543.599 240.762 C 544.453 241.658 545.657 242.106 547.209 242.106 C 548.229 242.106 549.177 242.012 550.052 241.825 C 550.938 241.627 551.886 241.304 552.896 240.856 L 552.896 243.841 C 552 244.268 551.094 244.57 550.177 244.747 C 549.261 244.924 548.214 245.012 547.037 245.012 Z M 546.365 229.888 C 545.198 229.888 544.261 230.257 543.552 230.997 C 542.854 231.736 542.438 232.815 542.302 234.231 L 550.146 234.231 C 550.125 232.804 549.782 231.726 549.115 230.997 C 548.448 230.257 547.532 229.888 546.365 229.888 Z" fill="#59B4FF"/>
</svg>