<?xml version="1.0" encoding="UTF-8"?><svg id="Layer_2" xmlns="http://www.w3.org/2000/svg" viewBox="0 0 609.08 284.3"><defs><style>.cls-1{fill:#00d7fb;}.cls-2{fill:#fff;}</style></defs><g id="Layer_1-2"><g><g><g><g><path class="cls-2" d="M320.09,0h127.65V37.41h-84.12v24.03h76.18v34.69h-76.18v25.17h85.25v37.41h-128.78V0Z"/><path class="cls-2" d="M466.32,126.74l79.58-89.56h-76.86V0h137.62V31.97l-79.58,89.56h79.58v37.18h-140.35v-31.97Z"/></g><g><path class="cls-2" d="M337.25,179.85h2.13l6.3,19.2,6.56-19.13h2.72l-8.2,23.13h-2.2l-6.3-18.64-6.33,18.64h-2.17l-8.2-23.13h2.82l6.56,19.13,6.3-19.2Z"/><path class="cls-2" d="M376.27,182.28h-14.01v7.84h12.54v2.36h-12.54v8.04h14.18v2.36h-16.77v-22.97h16.6v2.36Z"/><path class="cls-2" d="M394.49,180.33c.92,.27,1.7,.66,2.36,1.15s1.16,1.09,1.51,1.8c.35,.71,.52,1.5,.52,2.38,0,.77-.1,1.43-.31,2-.21,.57-.49,1.07-.83,1.51-.35,.44-.74,.8-1.16,1.1-.43,.3-.87,.54-1.33,.74,.68,.2,1.32,.45,1.92,.77,.6,.32,1.12,.7,1.56,1.13,.44,.44,.79,.96,1.05,1.58s.39,1.31,.39,2.1c0,.98-.2,1.87-.59,2.66-.39,.79-.96,1.45-1.69,1.99s-1.61,.95-2.64,1.23c-1.03,.29-2.16,.43-3.41,.43h-10.19v-22.97h9.76c1.14,0,2.16,.14,3.08,.41Zm.32,8.77c.98-.7,1.47-1.74,1.47-3.1,0-1.17-.44-2.09-1.31-2.77s-2.13-1.02-3.76-1.02h-6.97v7.94h6.77c1.55,0,2.81-.35,3.8-1.05Zm1.25,10.4c1-.73,1.51-1.75,1.51-3.06s-.51-2.26-1.54-2.95-2.54-1.04-4.55-1.04h-7.23v8.14h7.69c1.75,0,3.12-.36,4.12-1.09Z"/><path class="cls-2" d="M417.45,187.11c.17,.44,.49,.84,.95,1.2,.46,.36,1.09,.69,1.9,.99,.81,.3,1.85,.58,3.12,.84,2.56,.57,4.45,1.36,5.66,2.37,1.21,1.01,1.82,2.4,1.82,4.17,0,.99-.19,1.88-.58,2.7s-.92,1.5-1.61,2.07c-.68,.57-1.51,1.01-2.47,1.31-.96,.31-2.01,.46-3.15,.46-1.84,0-3.52-.3-5.04-.89s-2.97-1.51-4.35-2.75l1.61-1.9c1.2,1.09,2.42,1.91,3.64,2.45,1.22,.54,2.64,.8,4.23,.8s2.79-.36,3.72-1.08c.93-.72,1.39-1.68,1.39-2.86,0-.55-.09-1.03-.26-1.46-.17-.43-.48-.82-.92-1.17s-1.05-.67-1.83-.95-1.77-.56-2.98-.82c-1.32-.29-2.46-.61-3.44-.99-.98-.37-1.78-.82-2.42-1.35-.64-.53-1.11-1.14-1.41-1.84-.31-.7-.46-1.53-.46-2.5s.19-1.76,.56-2.53c.37-.77,.9-1.43,1.58-1.99,.68-.56,1.48-1,2.4-1.31,.92-.32,1.92-.48,3.02-.48,1.68,0,3.16,.23,4.41,.7,1.26,.46,2.48,1.16,3.66,2.09l-1.51,2c-1.07-.88-2.15-1.51-3.23-1.9s-2.21-.59-3.4-.59c-.74,0-1.42,.1-2.02,.3-.6,.2-1.12,.46-1.54,.79-.43,.33-.75,.72-.98,1.18-.23,.46-.34,.95-.34,1.48s.09,1.04,.26,1.48Z"/><path class="cls-2" d="M457.75,195.91c-.57,1.43-1.37,2.7-2.4,3.79-1.03,1.09-2.26,1.96-3.71,2.61-1.44,.64-3.04,.97-4.79,.97s-3.34-.32-4.78-.95c-1.43-.63-2.66-1.49-3.69-2.58s-1.82-2.34-2.38-3.77-.84-2.95-.84-4.55,.28-3.11,.85-4.54c.57-1.43,1.37-2.7,2.4-3.79,1.03-1.09,2.26-1.96,3.71-2.61,1.44-.65,3.04-.97,4.79-.97s3.34,.32,4.77,.95c1.43,.63,2.66,1.49,3.69,2.58s1.82,2.34,2.38,3.77c.56,1.43,.84,2.95,.84,4.54s-.28,3.11-.85,4.54Zm-2.51-8.19c-.45-1.16-1.08-2.17-1.89-3.02-.81-.85-1.77-1.53-2.87-2.04-1.11-.5-2.31-.75-3.63-.75s-2.52,.25-3.63,.74-2.05,1.17-2.84,2.02c-.79,.85-1.41,1.85-1.85,3s-.67,2.38-.67,3.69,.22,2.55,.67,3.71c.45,1.16,1.08,2.17,1.89,3.02s1.77,1.53,2.87,2.03c1.1,.5,2.31,.75,3.63,.75s2.52-.25,3.63-.74c1.1-.49,2.05-1.17,2.84-2.02,.79-.85,1.41-1.85,1.85-3s.67-2.38,.67-3.69-.22-2.55-.67-3.71Z"/><path class="cls-2" d="M464.08,179.92h2.59v20.58h12.93v2.4h-15.52v-22.97Z"/><path class="cls-2" d="M502.5,193.07c0,1.68-.23,3.16-.69,4.43-.46,1.27-1.11,2.33-1.95,3.18-.84,.85-1.85,1.49-3.02,1.92-1.17,.43-2.48,.64-3.92,.64s-2.72-.21-3.89-.64c-1.17-.43-2.18-1.06-3.02-1.9-.84-.84-1.49-1.89-1.95-3.13-.46-1.25-.69-2.68-.69-4.3v-13.36h2.59v13.19c0,2.49,.62,4.41,1.85,5.74,1.24,1.33,2.96,2,5.17,2s3.81-.63,5.05-1.9c1.25-1.27,1.87-3.16,1.87-5.68v-13.36h2.59v13.16Z"/><path class="cls-2" d="M517.3,202.89h-2.59v-20.58h-7.71v-2.4h18.01v2.4h-7.71v20.58Z"/><path class="cls-2" d="M532.73,179.92v22.97h-2.59v-22.97h2.59Z"/><path class="cls-2" d="M561.01,195.91c-.57,1.43-1.37,2.7-2.4,3.79-1.03,1.09-2.26,1.96-3.71,2.61-1.44,.64-3.04,.97-4.79,.97s-3.34-.32-4.78-.95c-1.43-.63-2.66-1.49-3.69-2.58s-1.82-2.34-2.38-3.77-.84-2.95-.84-4.55,.28-3.11,.85-4.54c.57-1.43,1.37-2.7,2.4-3.79,1.03-1.09,2.26-1.96,3.71-2.61,1.44-.65,3.04-.97,4.79-.97s3.34,.32,4.77,.95c1.43,.63,2.66,1.49,3.69,2.58s1.82,2.34,2.38,3.77c.56,1.43,.84,2.95,.84,4.54s-.28,3.11-.85,4.54Zm-2.51-8.19c-.45-1.16-1.08-2.17-1.89-3.02-.81-.85-1.77-1.53-2.87-2.04-1.11-.5-2.31-.75-3.63-.75s-2.52,.25-3.63,.74-2.05,1.17-2.84,2.02c-.79,.85-1.41,1.85-1.85,3s-.67,2.38-.67,3.69,.22,2.55,.67,3.71c.45,1.16,1.08,2.17,1.89,3.02s1.77,1.53,2.87,2.03c1.1,.5,2.31,.75,3.63,.75s2.52-.25,3.63-.74c1.1-.49,2.05-1.17,2.84-2.02,.79-.85,1.41-1.85,1.85-3s.67-2.38,.67-3.69-.22-2.55-.67-3.71Z"/><path class="cls-2" d="M584.25,179.92h2.53v22.97h-2.07l-14.83-18.84v18.84h-2.53v-22.97h2.43l14.47,18.41v-18.41Z"/><path class="cls-2" d="M595.53,187.11c.17,.44,.49,.84,.95,1.2,.46,.36,1.09,.69,1.9,.99,.81,.3,1.85,.58,3.12,.84,2.56,.57,4.45,1.36,5.66,2.37,1.21,1.01,1.82,2.4,1.82,4.17,0,.99-.19,1.88-.58,2.7s-.92,1.5-1.61,2.07c-.68,.57-1.51,1.01-2.47,1.31-.96,.31-2.01,.46-3.15,.46-1.84,0-3.52-.3-5.04-.89s-2.97-1.51-4.35-2.75l1.61-1.9c1.2,1.09,2.42,1.91,3.64,2.45,1.22,.54,2.64,.8,4.23,.8s2.79-.36,3.72-1.08c.93-.72,1.39-1.68,1.39-2.86,0-.55-.09-1.03-.26-1.46-.17-.43-.48-.82-.92-1.17s-1.05-.67-1.83-.95-1.77-.56-2.98-.82c-1.32-.29-2.46-.61-3.44-.99-.98-.37-1.78-.82-2.42-1.35-.64-.53-1.11-1.14-1.41-1.84-.31-.7-.46-1.53-.46-2.5s.19-1.76,.56-2.53c.37-.77,.9-1.43,1.58-1.99,.68-.56,1.48-1,2.4-1.31,.92-.32,1.92-.48,3.02-.48,1.68,0,3.16,.23,4.41,.7,1.26,.46,2.48,1.16,3.66,2.09l-1.51,2c-1.07-.88-2.15-1.51-3.23-1.9s-2.21-.59-3.4-.59c-.74,0-1.42,.1-2.02,.3-.6,.2-1.12,.46-1.54,.79-.43,.33-.75,.72-.98,1.18-.23,.46-.34,.95-.34,1.48s.09,1.04,.26,1.48Z"/></g></g><g><path class="cls-1" d="M204.73,193.21c1.16-1.01,2.63-2.14,3.09-1.76,1.02,2.73,.36,5.46-1.82,8.08-2.2,1.96-4.23,3.68-6.79,5.75,2.01-2.41,2.62-4.93,1.68-7.45,.05-1.25,3.81-4.59,3.85-4.62"/><path class="cls-1" d="M141.19,169.96c3.66,.79,2.29,5.93,.03,7.51-.7,.49-1.25,.52-1.74,.56-7.01-.5-14.27-.75-21.58-.73,.6-2.85,.56-5.36-.13-8.13,7.94-.03,15.81,.24,23.42,.79"/><path class="cls-1" d="M196.17,185.66c.92-.91,2.64-2.39,3.9-2.04,2.62,1.58,4.6,3.2,5.96,4.83,.68,2.14-6.01,7.24-6.8,6.62-1.25-1.5-3.07-2.99-5.49-4.45-1.13-1.29,2.4-4.92,2.43-4.96"/><path class="cls-1" d="M188.64,182.73c.26-.32,2.64-3.1,4.38-2.6,.85,.35,1.68,.71,2.47,1.08,1.9,1.19-2.43,6.54-5.11,7.2-.46,.11-.65,.05-.86-.02-.73-.34-1.49-.67-2.28-.99-1.23-.7,.2-3.24,1.4-4.67"/><path class="cls-1" d="M147.57,173.83c.38-.86,1.5-2.88,3.83-2.95,13.33,1.45,25.45,3.78,35.1,6.89,2.4,1.38-1.62,6.69-4.29,7.42-.28,.08-.69,.07-.98,.04-8.89-2.86-20.07-5.01-32.35-6.35-3.01-.8-1.33-5-1.31-5.04"/><path class="cls-1" d="M104.35,173.12c-.12-1.64,.46-4.49,3.37-4.78,4.58,.14,5.57,6.71,3.1,9.22-2.36,2.39-6.17-.22-6.47-4.43m-6.32-.47c.78,6.01,5.92,14.03,12.51,13.42,9.41-1.96,10.58-19.34,1.67-24.79-6.87-4.2-15.51,1.07-14.17,11.37"/><path class="cls-1" d="M209.08,152.2c.81-1.36,2.12-2.9,3.78-2.53,2.13,.94,4.09,1.92,5.88,2.93,2.2,1.25,4.07,2.52,5.61,3.8-1.73,2.62-3.16,5.17-4.62,8.29-1.48-1.23-3.26-2.44-5.37-3.64-1.71-.97-3.59-1.91-5.63-2.8-2.23-1.58,.31-6.01,.34-6.06"/><path class="cls-1" d="M100.62,139.39c.08-1.01,.6-3.4,3.6-3.86,12.22-.46,24.5-.33,36.36,.33-1.09,3.11-1.38,5.94-.94,9.19-11.33-.63-23.08-.75-34.76-.32-4.47-.36-4.26-5.3-4.26-5.35"/><path class="cls-1" d="M66.64,142.69c-.09-1.01,0-3.43,2.75-4.17,.51-.07,1.02-.14,1.53-.21,6.5-.87,13.16-1.55,19.9-2.05,4.87,.22,5.41,6.18,3.27,8.25-.68,.66-1.42,.81-2.02,.92-6.44,.47-12.81,1.12-19.03,1.96-.49,.07-.98,.13-1.46,.2-4.3,.07-4.94-4.85-4.94-4.9"/><path class="cls-1" d="M188.58,145.95c.71-1.42,2-3.07,4.18-2.87,4.14,1.02,8.02,2.14,11.62,3.34,3.16,1.72,.2,7.93-2.62,8.72-.32,.09-.79,.06-1.12,0-3.44-1.15-7.15-2.22-11.11-3.19-2.65-1.12-1.54-4.8-.94-6"/><path class="cls-1" d="M162.14,146.49c1.87-4.07,1.75-7.47,1.71-8.58,5.77,.71,11.34,1.56,16.63,2.54,3.89,1.31,1.91,7.09-.68,8.57-.83,.47-1.48,.44-2.01,.42-5.06-.94-10.38-1.75-15.9-2.43,.07-.16,.18-.36,.25-.52"/><path class="cls-1" d="M52.32,145.79c-.37-1.45-.38-4.08,1.96-4.72,1.52-.31,3.08-.6,4.67-.89,3.95-.44,6.32,5.66,4.08,8.19-.52,.59-1.09,.73-1.43,.82-1.52,.27-3.01,.56-4.46,.85-2.49,.32-4.32-2.29-4.82-4.24"/><path class="cls-1" d="M224.54,162.06c.98-1.6,2.86-4.09,3.71-3.3,1.3,2.38-4.03,10.69-5.71,10.36-1.14-.23,.16-4.05,2-7.06m-2.33-2.18c-2.1,3.7-7.55,14.77-5.06,17.06,4.91,1.86,17.89-20.22,15.43-26.24-1.19-2.91-5.84,1.21-10.37,9.18"/><path class="cls-1" d="M147.16,140.35c.4-1.83,2-4.9,5.42-4.81,4.74,.72,4.89,7.55,1.25,10.43-3.44,2.73-7.43-.24-6.78-5.04,.02-.18,.07-.41,.1-.58m-7.58-.5c-.83,6.29,1.92,15.75,10.43,16.07,12.2-.79,18.71-19.78,9.41-27.46-7.43-6.13-18.37,.15-19.85,11.39"/><path class="cls-1" d="M189.53,108.56c.3-1.02,1.3-3.36,4.01-3.17,10.86,2.28,20.48,5.08,28.32,8.35-1.11,3.06-1.71,5.99-1.95,9.5-7.69-3.21-17.13-5.96-27.78-8.19-3.92-1.39-2.61-6.44-2.6-6.49"/><path class="cls-1" d="M154.74,103.84c.26-1.04,1.2-3.47,4.35-3.55,7.65,.73,15.04,1.67,22.06,2.81,4.37,1.3,3.9,7.42,1.02,9.22-.84,.52-1.59,.5-2.2,.48-6.89-1.11-14.14-2.04-21.64-2.75-4.65-1.01-3.6-6.16-3.59-6.21"/><path class="cls-1" d="M96.99,102.89c.15-1.07,.86-3.61,4.21-4.12,8.17-.33,16.38-.43,24.5-.3,5.12,.66,5.37,6.8,2.32,9-.88,.64-1.75,.72-2.45,.79-7.97-.12-16.02-.03-24.03,.29-5.06-.36-4.55-5.61-4.54-5.66"/><path class="cls-1" d="M87.6,99.54c5.43,.22,5.53,6.55,2.96,8.77-.83,.71-1.69,.87-2.37,1-7.37,.54-14.65,1.28-21.76,2.24-5.9,.79-11.46,1.7-16.66,2.72,.25-3.51-.16-6.49-1.33-9.67,5.3-1.03,10.97-1.96,16.99-2.77,7.24-.97,14.67-1.73,22.17-2.28"/><path class="cls-1" d="M241.58,134.09c.69-2.51,.93-2.61,1.03-2.65,.02,.05,.04,.11,.06,.16,.14,1.08,.09,2.15-.14,3.22-.76,2.98-1.67,6.97-2.55,9.91,.4-1.32,.52-2.64,.35-3.97-.04-1.87,1.25-6.63,1.26-6.68"/><path class="cls-1" d="M240.81,126.79c.84,2.12-.74,9.16-2.13,9.41-.05-.05-.13-.11-.18-.15-1.25-1.94-3.13-3.86-5.67-5.76,1.21-2.98,1.89-5.87,2.19-9.37,2.59,1.94,4.5,3.9,5.78,5.88"/><path class="cls-1" d="M136.51,103.19c.19-1.55,1.35-4.19,4.47-4.21,1.99,.1,3.96,.22,5.93,.34,4.4,.54,5.25,6.34,2.22,8.85-1.14,.94-2.23,.93-2.76,.93-1.93-.13-3.87-.24-5.82-.34-3.23-.35-4.31-3.47-4.05-5.57"/><path class="cls-1" d="M225.58,119.94c.49-1.84,1.84-4.74,3.8-3.91,3.49,2.35,1.19,11.61-1.76,11.94-2.1,.24-3.15-3.89-2.05-8.03m-4.89-2.2c-1.5,6.72-1.3,17.22,3.87,19.53,8.69,2.27,13.51-20.71,8.26-28.8-3.78-5.82-9.78-1.23-12.13,9.27"/><path class="cls-1" d="M33.97,112.29c-.17-1.81,.29-5.5,3.3-6.48,4.58-.79,6.72,6.65,4.06,10.43-2.33,3.32-6.48,1.42-7.28-3.34-.03-.18-.06-.43-.08-.62m-6.25,.8c.92,8.59,6.91,16.25,14.38,13.94,11.84-5.15,8.99-27.22-1.28-30.74-7.51-2.58-14.25,6.05-13.11,16.8"/><path class="cls-1" d="M29.38,75.39c.2-1.05,.92-3.62,3.41-4.64,6.99-1.87,14.88-3.53,23.58-4.93-1.04,3.38-1.15,6.31-.34,9.52-8.75,1.41-16.68,3.08-23.71,4.96-3.28,.39-3.16-3.77-2.95-4.91"/><path class="cls-1" d="M91.88,65.69c.22-1.02,1.09-3.46,4.52-3.99,13.78-.71,27.72-.74,41.26-.17-.89,3.18-.86,6.11,.08,9.5-13.6-.58-27.62-.54-41.47,.17-4.55-.25-4.61-4.41-4.38-5.51"/><path class="cls-1" d="M197.4,77.67c.84-4.22-.17-7.81-.5-8.99,8.77,1.93,16.7,4.2,23.5,6.79,3.64,2,3.76,8.8,1.56,9.6-.3,.11-.75,.03-1.06-.03-6.83-2.6-14.8-4.89-23.62-6.82,.04-.17,.09-.39,.12-.55"/><path class="cls-1" d="M9.2,83.08c.16-1.07,.72-3.67,2.45-4.85,3.09-1.48,6.58-2.89,10.45-4.23,3.44-.62,2.94,5.62,1.11,8.19-.61,.85-.95,1.03-1.63,1.38-3.89,1.35-7.4,2.77-10.5,4.25-2.2,.58-2.09-3.33-1.87-4.74"/><path class="cls-1" d="M.07,89.58c.14-1.44,.69-4.42,1.78-5.45,.68-.54,1.41-1.07,2.18-1.59,1.55-.84,1.79,3.49,.79,6.95-.57,1.98-1.2,2.49-1.41,2.66-.78,.53-1.51,1.06-2.19,1.6-1.12,.71-1.35-2.07-1.15-4.17"/><path class="cls-1" d="M226.92,81.87c.02-.35,.21-3.37,2.03-2.66,.06,.02,7.15,3.4,11.42,7.86,3.07,3.2,3.47,4.88,4.2,7.93,.21,3.15,.6,7.33,.68,10.48-.12-5.08-4.26-10.24-12.85-15.12-.93-.53-1.9-1.05-2.91-1.56-2.33-1.65-2.62-5.89-2.58-6.93"/><path class="cls-1" d="M63.96,68.76c.24-1.88,1.69-5.25,5.64-5.93,5.35-.35,6.84,5.76,3.57,9.64-3.32,3.93-8.94,2.42-9.25-2.49-.02-.36,0-.85,.04-1.21m-8.42,1.25c-.51,6.92,3.99,16.24,15.25,14.27,14.1-4.04,16.86-22.89,7.14-28.89-8.96-5.53-21.52,2.67-22.4,14.62"/><path class="cls-1" d="M145.86,66.03c.15-1.84,1.44-4.94,5.31-4.86,5.53,.71,7.14,7.74,3.62,10.73-3.68,3.13-9.36-.6-8.92-5.87m-8.85-.46c-.2,6.86,4.65,17.12,15.69,17.32,14.11-1.34,16.05-19.74,5.92-27.64-9.16-7.13-21.28-1.35-21.62,10.32"/><path class="cls-1" d="M180.86,69.75c.09-1.83,1.16-4.83,4.56-4.45,5.24,1.23,6.59,8.86,3.05,11.31-3.24,2.25-7.87-1.92-7.62-6.86m-7.97-2.11c-.41,7.41,4.16,18.31,13.8,19.49,12.63,.25,14.38-17.55,5.38-26.74-7.98-8.14-18.56-4.15-19.19,7.24"/><path class="cls-1" d="M235.65,60.24c-.3-.74-.59-1.48-.91-2.21l1.21,2.84,2.24,5.87-.06-.17c-.46-1.23-1.54-4-2.47-6.34"/><path class="cls-1" d="M117.57,36.26c1.12-3.57,.22-6.32-.08-7.22,10.33-.04,20.58,.31,30.49,1.03,4.74,.78,5.6,5.64,3.05,7.22-.76,.47-1.57,.49-2.23,.51-10.2-.73-20.76-1.09-31.39-1.06,.05-.14,.11-.33,.16-.47"/><path class="cls-1" d="M224.01,49.98c-.2-.68-.74-2.82,.61-2.14,3.42,2.05,5.99,4.16,7.75,6.28,1.33,1.85,3.68,7.45,3.6,8.57-.03,0-.06,.02-.09,.03-.05-.05-.12-.11-.17-.15-1.82-2.19-4.47-4.35-7.99-6.47-2.38-1.81-3.71-6.07-3.72-6.11"/><path class="cls-1" d="M214.29,45.9c-.35-1.23-.51-3.17,1.16-2.6,1.11,.46,2.18,.93,3.21,1.4,2.92,1.56,5.24,7.66,3.72,8.26-.27,.11-.52,0-.79-.09-1.06-.49-2.17-.97-3.31-1.45-1.93-.93-3.5-3.79-4-5.52"/><path class="cls-1" d="M157.92,33.89c.05-.8,.49-2.67,3.35-2.64,17.35,1.88,33.14,4.92,45.7,8.96,3.84,1.7,5.47,7.41,3.6,8.07-.29,.1-.71,.02-1.01-.04-12.94-4.16-29.19-7.29-47.06-9.23-4.64-.95-4.57-5.08-4.57-5.12"/><path class="cls-1" d="M99.05,32.8c.29-1.51,1.79-4.15,5.56-4.45,5.18,.05,6.53,5.12,3.3,8.06-3.52,3.21-9.27,1.2-8.92-3.12,.01-.15,.04-.35,.07-.49m-8.31-.29c-1.6,7.06,3.8,14.4,14.1,13.65,13.52-2.01,17.2-16.01,8.77-22.38-8.44-6.39-20.84-.25-22.87,8.73"/><path class="cls-1" d="M201.36,18.74c-.89-1.33-.67-1.61-.58-1.73,.17-.01,.4,.04,.57,.09,1.86,.82,3.58,1.67,5.14,2.56,1.92,1.09,3.55,2.2,4.91,3.32,1.73,2.03,3.32,3.98,5.49,6.73-1.43-1.19-3.16-2.37-5.2-3.52-1.66-.94-3.48-1.85-5.45-2.72-2.57-1.38-4.86-4.7-4.88-4.73"/><path class="cls-1" d="M102.55,7.06c.26-.6,1.16-2.03,3.84-2.33,10.68-.4,21.42-.29,31.78,.29-.33,1.87,0,3.61,1.09,5.65-10.98-.61-22.37-.73-33.69-.31-3.57-.15-3.37-2.49-3.02-3.3"/><path class="cls-1" d="M71.6,10.08c.44-.63,1.75-2.16,4.36-2.73,.44-.06,.89-.12,1.34-.18,5.68-.76,11.5-1.36,17.39-1.79,3.52,.02,3.28,2.71,1.81,4.16-1.2,1.18-2.7,1.41-3.34,1.51-6.24,.46-12.42,1.09-18.44,1.9-.48,.06-.95,.13-1.42,.19-3.27,.18-2.31-2.21-1.71-3.06"/><path class="cls-1" d="M182.68,13.04c-.41-.91-.55-1.95,1.09-1.71,3.61,.89,7.01,1.87,10.15,2.92,3.41,1.45,6.36,5.8,5.21,6.27-.21,.09-.54-.01-.77-.06-3.33-1.12-6.93-2.15-10.76-3.1-3.37-1.14-4.91-4.29-4.93-4.32"/><path class="cls-1" d="M173.05,9.04c3.72,1,5.93,4.68,4.63,5.69-.39,.3-.97,.25-1.44,.2-4.9-.91-10.06-1.69-15.41-2.35-.06-1.95-.77-3.73-2.32-5.76,5.05,.62,9.91,1.36,14.54,2.22"/><path class="cls-1" d="M58.24,12.79c.61-.88,2.34-2.68,4.52-3.21,1.33-.27,2.69-.53,4.08-.78,2.44-.33,2.2,1.65,.95,3.22-.39,.49-1.86,2.15-4.15,2.66-1.47,.27-2.92,.54-4.33,.82-2.29,.36-2.01-1.37-1.08-2.71"/><path class="cls-1" d="M215.81,27.69c-.61-.73-1.22-1.46-1.84-2.18l.51,.58c1.87,2.31,4.44,5.34,6.21,7.73-.42-.55-2.7-3.49-4.88-6.13m-2.14-1.99c3.54,4.31,5.73,7.2,12.23,15.76,.04,.05,.09,.11,.12,.16-7.02-10.28-7.16-10.47-11.55-15.53-2.01-2.15-4.64-5.08-6.73-7.15l.03,.03c1.49,1.51,3.48,3.78,5.89,6.73"/><path class="cls-1" d="M145.05,7.84c-.15-1.08,.37-2.87,3.25-2.73,4.38,.56,6.85,4.8,4.67,6.5-2.37,1.85-7.48-.58-7.92-3.77m-6.93-.45c.71,5.05,6.58,10.76,14.81,11.21,9-.17,9.95-7.47,4.39-13.12-7.56-7.67-19.27-7.16-19.28,.85,0,.31,.03,.74,.08,1.06"/></g></g><g><path class="cls-2" d="M29.5,269.6h-9.75v5.75h8.72v1.66h-8.72v7.01h-1.82v-16.1h11.57v1.68Z"/><path class="cls-2" d="M55.65,284.02h-1.96l-1.89-4.25h-8.76l-1.91,4.25h-1.86l7.34-16.21h1.7l7.34,16.21Zm-8.21-14.08l-3.68,8.21h7.34l-3.66-8.21Z"/><path class="cls-2" d="M69.57,272.97c.12,.31,.34,.59,.67,.84,.32,.25,.77,.48,1.33,.69,.57,.21,1.29,.4,2.18,.59,1.79,.4,3.12,.95,3.97,1.66,.85,.71,1.28,1.68,1.28,2.92,0,.69-.14,1.32-.41,1.89s-.65,1.05-1.13,1.45-1.06,.71-1.73,.92c-.67,.21-1.41,.32-2.21,.32-1.29,0-2.46-.21-3.53-.62-1.07-.42-2.08-1.06-3.05-1.93l1.13-1.33c.84,.77,1.69,1.34,2.55,1.71s1.85,.56,2.97,.56,1.96-.25,2.61-.76c.65-.51,.98-1.17,.98-2,0-.38-.06-.72-.18-1.02s-.34-.57-.65-.82c-.31-.25-.73-.47-1.28-.67-.54-.2-1.24-.39-2.09-.58-.92-.2-1.73-.43-2.41-.69-.68-.26-1.25-.58-1.7-.94s-.78-.8-.99-1.29-.32-1.08-.32-1.75,.13-1.24,.39-1.77c.26-.54,.63-1,1.1-1.39,.47-.39,1.03-.7,1.68-.92,.64-.22,1.35-.33,2.12-.33,1.18,0,2.21,.16,3.09,.49,.88,.32,1.74,.81,2.56,1.47l-1.06,1.4c-.75-.61-1.51-1.06-2.27-1.33s-1.55-.41-2.38-.41c-.52,0-.99,.07-1.42,.21-.42,.14-.78,.32-1.08,.55s-.53,.51-.69,.83c-.16,.32-.24,.67-.24,1.04s.06,.73,.18,1.04Z"/><path class="cls-2" d="M97.9,284.02h-1.82v-14.42h-5.41v-1.68h12.63v1.68h-5.41v14.42Z"/><path class="cls-2" d="M113.41,284.02v-2.42h2.12v2.42h-2.12Z"/><path class="cls-2" d="M146.99,272.97c.12,.31,.34,.59,.67,.84,.32,.25,.77,.48,1.33,.69,.57,.21,1.29,.4,2.18,.59,1.79,.4,3.12,.95,3.97,1.66,.85,.71,1.28,1.68,1.28,2.92,0,.69-.14,1.32-.41,1.89s-.65,1.05-1.13,1.45-1.06,.71-1.73,.92c-.67,.21-1.41,.32-2.21,.32-1.29,0-2.46-.21-3.53-.62-1.07-.42-2.08-1.06-3.05-1.93l1.13-1.33c.84,.77,1.69,1.34,2.55,1.71s1.85,.56,2.97,.56,1.96-.25,2.61-.76c.65-.51,.98-1.17,.98-2,0-.38-.06-.72-.18-1.02s-.34-.57-.65-.82c-.31-.25-.73-.47-1.28-.67-.54-.2-1.24-.39-2.09-.58-.92-.2-1.73-.43-2.41-.69-.68-.26-1.25-.58-1.7-.94s-.78-.8-.99-1.29-.32-1.08-.32-1.75,.13-1.24,.39-1.77c.26-.54,.63-1,1.1-1.39,.47-.39,1.03-.7,1.68-.92,.64-.22,1.35-.33,2.12-.33,1.18,0,2.21,.16,3.09,.49,.88,.32,1.74,.81,2.56,1.47l-1.06,1.4c-.75-.61-1.51-1.06-2.27-1.33s-1.55-.41-2.38-.41c-.52,0-.99,.07-1.42,.21-.42,.14-.78,.32-1.08,.55s-.53,.51-.69,.83c-.16,.32-.24,.67-.24,1.04s.06,.73,.18,1.04Z"/><path class="cls-2" d="M171.57,267.92v16.1h-1.82v-16.1h1.82Z"/><path class="cls-2" d="M193.49,279.61h-.09l-5.87-8.6v13.02h-1.77v-16.1h1.84l5.87,8.79,5.86-8.79h1.84v16.1h-1.82v-13.04l-5.87,8.62Z"/><path class="cls-2" d="M226.75,275.35c-.34,.66-.79,1.21-1.37,1.66-.57,.44-1.25,.78-2.01,1-.77,.22-1.58,.33-2.44,.33h-3.91v5.68h-1.82v-16.1h6.03c.91,0,1.73,.12,2.47,.36,.74,.24,1.38,.58,1.91,1.01,.53,.44,.93,.97,1.22,1.61s.43,1.35,.43,2.15c0,.87-.17,1.64-.51,2.3Zm-2.5-4.86c-.79-.59-1.84-.89-3.15-.89h-4.08v7.08h3.99c.66,0,1.26-.08,1.81-.25,.54-.17,1.01-.41,1.41-.72,.39-.31,.69-.69,.9-1.13,.21-.44,.31-.92,.31-1.46,0-1.17-.4-2.04-1.19-2.63Z"/><path class="cls-2" d="M240.04,267.92h1.82v14.42h9.06v1.68h-10.88v-16.1Z"/><path class="cls-2" d="M275.39,269.58h-9.82v5.5h8.79v1.66h-8.79v5.63h9.94v1.66h-11.75v-16.1h11.64v1.66Z"/><path class="cls-2" d="M288.14,284.02v-2.42h2.12v2.42h-2.12Z"/><path class="cls-2" d="M331.67,275.35c-.34,.66-.79,1.21-1.37,1.66-.57,.44-1.25,.78-2.01,1-.77,.22-1.58,.33-2.44,.33h-3.91v5.68h-1.82v-16.1h6.03c.91,0,1.73,.12,2.47,.36,.74,.24,1.38,.58,1.91,1.01,.53,.44,.93,.97,1.22,1.61s.43,1.35,.43,2.15c0,.87-.17,1.64-.51,2.3Zm-2.5-4.86c-.79-.59-1.84-.89-3.15-.89h-4.08v7.08h3.99c.66,0,1.26-.08,1.81-.25,.54-.17,1.01-.41,1.41-.72,.39-.31,.69-.69,.9-1.13,.21-.44,.31-.92,.31-1.46,0-1.17-.4-2.04-1.19-2.63Z"/><path class="cls-2" d="M356.05,284.02l-4.67-6.26h-4.6v6.26h-1.82v-16.1h6.92c.89,0,1.69,.12,2.4,.34,.71,.23,1.32,.56,1.83,.98,.51,.42,.9,.93,1.17,1.52,.28,.59,.41,1.25,.41,1.97,0,.67-.11,1.28-.32,1.81-.21,.53-.52,.99-.91,1.38-.39,.39-.85,.72-1.39,.98-.54,.26-1.12,.44-1.75,.55l4.94,6.57h-2.23Zm-1.25-13.58c-.72-.56-1.74-.84-3.04-.84h-4.98v6.55h4.96c.6,0,1.15-.08,1.66-.23,.51-.15,.95-.37,1.31-.66,.37-.28,.66-.63,.86-1.05,.21-.42,.31-.88,.31-1.41,0-1.02-.36-1.8-1.08-2.37Z"/><path class="cls-2" d="M386.18,279.13c-.4,1-.96,1.89-1.68,2.66-.72,.77-1.59,1.38-2.6,1.83-1.01,.45-2.13,.68-3.36,.68s-2.34-.22-3.35-.67c-1-.45-1.87-1.05-2.59-1.81-.72-.76-1.28-1.64-1.67-2.65-.39-1-.59-2.07-.59-3.19s.2-2.18,.6-3.18c.4-1,.96-1.89,1.68-2.66,.72-.77,1.59-1.38,2.6-1.83,1.01-.45,2.13-.68,3.36-.68s2.34,.22,3.35,.67c1,.45,1.87,1.05,2.59,1.81,.72,.76,1.28,1.64,1.67,2.65,.39,1,.59,2.07,.59,3.18s-.2,2.18-.6,3.19Zm-1.76-5.74c-.31-.81-.76-1.52-1.32-2.12-.57-.6-1.24-1.07-2.01-1.43-.77-.35-1.62-.53-2.54-.53s-1.77,.17-2.54,.52c-.77,.35-1.44,.82-1.99,1.42-.55,.6-.99,1.3-1.3,2.1-.31,.8-.47,1.67-.47,2.59s.16,1.79,.47,2.6c.31,.81,.75,1.52,1.32,2.12,.57,.6,1.24,1.07,2.01,1.43,.77,.35,1.62,.53,2.54,.53s1.77-.17,2.54-.52c.77-.34,1.44-.82,1.99-1.41s.99-1.3,1.3-2.1c.31-.8,.47-1.67,.47-2.59s-.16-1.79-.47-2.6Z"/><path class="cls-2" d="M411.67,269.6h-9.75v5.75h8.72v1.66h-8.72v7.01h-1.82v-16.1h11.57v1.68Z"/><path class="cls-2" d="M436.3,269.58h-9.82v5.5h8.79v1.66h-8.79v5.63h9.94v1.66h-11.75v-16.1h11.64v1.66Z"/><path class="cls-2" d="M451.14,272.97c.12,.31,.34,.59,.67,.84,.32,.25,.77,.48,1.33,.69,.57,.21,1.29,.4,2.18,.59,1.79,.4,3.12,.95,3.97,1.66,.85,.71,1.28,1.68,1.28,2.92,0,.69-.14,1.32-.41,1.89s-.65,1.05-1.13,1.45-1.06,.71-1.73,.92c-.67,.21-1.41,.32-2.21,.32-1.29,0-2.46-.21-3.53-.62-1.07-.42-2.08-1.06-3.05-1.93l1.13-1.33c.84,.77,1.69,1.34,2.55,1.71s1.85,.56,2.97,.56,1.96-.25,2.61-.76c.65-.51,.98-1.17,.98-2,0-.38-.06-.72-.18-1.02s-.34-.57-.65-.82c-.31-.25-.73-.47-1.28-.67-.54-.2-1.24-.39-2.09-.58-.92-.2-1.73-.43-2.41-.69-.68-.26-1.25-.58-1.7-.94s-.78-.8-.99-1.29-.32-1.08-.32-1.75,.13-1.24,.39-1.77c.26-.54,.63-1,1.1-1.39,.47-.39,1.03-.7,1.68-.92,.64-.22,1.35-.33,2.12-.33,1.18,0,2.21,.16,3.09,.49,.88,.32,1.74,.81,2.56,1.47l-1.06,1.4c-.75-.61-1.51-1.06-2.27-1.33s-1.55-.41-2.38-.41c-.52,0-.99,.07-1.42,.21-.42,.14-.78,.32-1.08,.55s-.53,.51-.69,.83c-.16,.32-.24,.67-.24,1.04s.06,.73,.18,1.04Z"/><path class="cls-2" d="M475.1,272.97c.12,.31,.34,.59,.67,.84,.32,.25,.77,.48,1.33,.69,.57,.21,1.29,.4,2.18,.59,1.79,.4,3.12,.95,3.97,1.66,.85,.71,1.28,1.68,1.28,2.92,0,.69-.14,1.32-.41,1.89s-.65,1.05-1.13,1.45-1.06,.71-1.73,.92c-.67,.21-1.41,.32-2.21,.32-1.29,0-2.46-.21-3.53-.62-1.07-.42-2.08-1.06-3.05-1.93l1.13-1.33c.84,.77,1.69,1.34,2.55,1.71s1.85,.56,2.97,.56,1.96-.25,2.61-.76c.65-.51,.98-1.17,.98-2,0-.38-.06-.72-.18-1.02s-.34-.57-.65-.82c-.31-.25-.73-.47-1.28-.67-.54-.2-1.24-.39-2.09-.58-.92-.2-1.73-.43-2.41-.69-.68-.26-1.25-.58-1.7-.94s-.78-.8-.99-1.29-.32-1.08-.32-1.75,.13-1.24,.39-1.77c.26-.54,.63-1,1.1-1.39,.47-.39,1.03-.7,1.68-.92,.64-.22,1.35-.33,2.12-.33,1.18,0,2.21,.16,3.09,.49,.88,.32,1.74,.81,2.56,1.47l-1.06,1.4c-.75-.61-1.51-1.06-2.27-1.33s-1.55-.41-2.38-.41c-.52,0-.99,.07-1.42,.21-.42,.14-.78,.32-1.08,.55s-.53,.51-.69,.83c-.16,.32-.24,.67-.24,1.04s.06,.73,.18,1.04Z"/><path class="cls-2" d="M499.69,267.92v16.1h-1.82v-16.1h1.82Z"/><path class="cls-2" d="M528.99,279.13c-.4,1-.96,1.89-1.68,2.66-.72,.77-1.59,1.38-2.6,1.83-1.01,.45-2.13,.68-3.36,.68s-2.34-.22-3.35-.67c-1-.45-1.87-1.05-2.59-1.81-.72-.76-1.28-1.64-1.67-2.65-.39-1-.59-2.07-.59-3.19s.2-2.18,.6-3.18c.4-1,.96-1.89,1.68-2.66,.72-.77,1.59-1.38,2.6-1.83,1.01-.45,2.13-.68,3.36-.68s2.34,.22,3.35,.67c1,.45,1.87,1.05,2.59,1.81,.72,.76,1.28,1.64,1.67,2.65,.39,1,.59,2.07,.59,3.18s-.2,2.18-.6,3.19Zm-1.76-5.74c-.31-.81-.76-1.52-1.32-2.12-.57-.6-1.24-1.07-2.01-1.43-.77-.35-1.62-.53-2.54-.53s-1.77,.17-2.54,.52c-.77,.35-1.44,.82-1.99,1.42-.55,.6-.99,1.3-1.3,2.1-.31,.8-.47,1.67-.47,2.59s.16,1.79,.47,2.6c.31,.81,.75,1.52,1.32,2.12,.57,.6,1.24,1.07,2.01,1.43,.77,.35,1.62,.53,2.54,.53s1.77-.17,2.54-.52c.77-.34,1.44-.82,1.99-1.41s.99-1.3,1.3-2.1c.31-.8,.47-1.67,.47-2.59s-.16-1.79-.47-2.6Z"/><path class="cls-2" d="M554.75,267.92h1.77v16.1h-1.45l-10.4-13.2v13.2h-1.77v-16.1h1.7l10.14,12.9v-12.9Z"/><path class="cls-2" d="M585.55,284.02h-1.96l-1.89-4.25h-8.76l-1.91,4.25h-1.86l7.34-16.21h1.7l7.34,16.21Zm-8.21-14.08l-3.68,8.21h7.34l-3.66-8.21Z"/><path class="cls-2" d="M598.2,267.92h1.82v14.42h9.06v1.68h-10.88v-16.1Z"/></g></g></g></svg>