<?xml version="1.0" encoding="utf-8"?>
<!-- Generator: Adobe Illustrator 26.5.0, SVG Export Plug-In . SVG Version: 6.00 Build 0)  -->
<svg version="1.1" id="Layer_1" xmlns="http://www.w3.org/2000/svg" xmlns:xlink="http://www.w3.org/1999/xlink" x="0px" y="0px"
	 viewBox="0 0 1920 1080" style="enable-background:new 0 0 1920 1080;" xml:space="preserve">
<style type="text/css">
	.st0{fill:#4EC0AC;}
</style>
<g>
	<path class="st0" d="M486.1,525.8c6.4-4.5,12.3-8.6,18.2-12.7c12-8.4,23.9-16.9,35.9-25.3c2.6-1.8,5.4-2.7,8.4-0.8
		c2.9,1.7,4,4.2,4,7.5c-0.1,7,0.1,14-0.1,20.9c-0.5,16.7-6,31.5-16.6,44.5c-11,13.5-25,22-41.9,25.8c-4.1,0.9-8.3,1.5-12.5,1.5
		c-24.1,0.1-48.1,0-72.2,0.1c-35.5,0.1-66.2-26.3-72-59.9c-1.4-8.4-1.6-17-1.7-25.5c-0.2-18.1-0.1-36.2-0.1-54.3
		c0.1-20,6.4-37.7,20.2-52.3c12-12.8,26.8-20.7,44.5-22.7c3.2-0.4,6.4-0.6,9.6-0.6c28.8,0,57.6-0.2,86.4,0.1
		c13.6,0.1,25.5,5.4,35.8,14.3c10.5,9.2,17.1,20.6,19.6,34.4c2.6,14.5,0.7,28.1-9.5,39.5c-6.7,7.4-15.5,11.7-25.3,13.5
		c-7.2,1.3-14.6,2-21.9,2.1c-25.6,0.2-51.1,0.1-76.7,0c-0.7,0-1.3,0.1-2.6,0.2c1.4,1.6,2.3,2.8,3.4,4c3.9,4.3,8,8.5,11.8,13
		c2.6,3.1,2.2,6.6-0.5,9.5c-2.9,3.1-7.5,3.3-10.4,0.2c-6.4-6.7-12.7-13.6-19-20.4c-2.5-2.7-5.1-5.2-7.4-8c-3.8-4.4-3.5-7.9,0.6-12.1
		c8.8-8.8,17.6-17.6,26.4-26.4c2.1-2.1,4.6-3.3,7.6-2.4c3.1,0.9,4.9,3.1,5.5,6.2c0.6,3.4-1.4,5.7-3.6,7.9c-4.3,4.4-8.6,8.8-13,13.4
		c0.7,0.1,1.4,0.2,2.2,0.2c27.4,0,54.8,0.2,82.2-0.1c8.2-0.1,16.4-1.7,23.7-6c9-5.3,13-13.5,12.8-23.6
		c-0.3-22.4-14.6-39.5-36.7-44.1c-2.5-0.5-5.2-0.7-7.8-0.7c-28.1-0.1-56.2-0.4-84.3,0.1c-17.6,0.3-32.5,7.4-44.1,21
		c-7.1,8.2-11.4,17.8-13.4,28.4c-0.5,2.7-0.7,5.4-0.7,8.1c-0.1,22.8,0,45.7,0,68.5c0,16,5.5,30,16.4,41.5
		c10.1,10.6,22.6,17.2,37.4,17.9c14.4,0.7,28.9,0.5,43.3,0.6c9.3,0.1,18.6-0.1,27.9,0c18.9,0.1,34.9-6.4,47.5-20.6
		c7.3-8.3,12-17.9,13.6-28.9c0.7-4.7,0.9-9.5,1.4-15.3c-2.6,1.7-4.4,2.8-6.1,4c-13.7,9.6-27.4,19.2-41.1,28.9
		c-4.1,2.9-7.6,2.7-11.3-0.9c-4.5-4.4-8.8-8.9-13.2-13.3c-2.8-2.8-5.5-5.6-8.4-8.6c-1,0.9-1.8,1.6-2.5,2.4
		c-9.9,9.9-19.7,19.7-29.6,29.6c-4.7,4.6-10.8,3.3-13-2.6c-1.1-3-0.1-5.5,1.9-7.4c12.5-12.6,25.1-25.2,37.7-37.7
		c3.4-3.4,7.5-3,11.2,0.6c6.6,6.5,13.2,13.1,19.7,19.7C484.4,523.4,485.2,524.6,486.1,525.8z"/>
	<path class="st0" d="M491.3,617.9c0.4,8.3-6.6,15.1-15.1,15.3c-8.1,0.2-15.2-7.2-15.2-15.5c0.1-8.2,7-15.1,15.2-15.1
		C484.6,602.5,491.3,609.3,491.3,617.9z"/>
	<path class="st0" d="M427.2,618.4c-0.4,9.9-8.4,15.1-15.7,14.7c-9.7-0.6-14.9-7.7-14.6-15.6c0.3-9.1,6.9-15,16-14.8
		C421.2,602.9,427.8,610.3,427.2,618.4z"/>
</g>
<g>
	<path d="M699.1,408.3c-0.6,0.6-1.2,0.8-2,0.8h-51.8c-0.8,0-1.2,0.4-1.2,1.2v45.4c0,0.8,0.4,1.2,1.2,1.2h30.7c0.8,0,1.5,0.3,2,0.8
		c0.6,0.6,0.8,1.2,0.8,2v18.5c0,0.8-0.3,1.5-0.8,2c-0.6,0.6-1.2,0.8-2,0.8h-30.7c-0.8,0-1.2,0.4-1.2,1.2V528c0,0.8,0.4,1.2,1.2,1.2
		H697c0.8,0,1.5,0.3,2,0.8c0.6,0.6,0.8,1.2,0.8,2v18.2c0,0.8-0.3,1.5-0.8,2c-0.6,0.6-1.2,0.8-2,0.8h-78c-0.8,0-1.5-0.3-2-0.8
		c-0.6-0.6-0.8-1.2-0.8-2V388c0-0.8,0.3-1.5,0.8-2c0.6-0.6,1.2-0.8,2-0.8h78c0.8,0,1.5,0.3,2,0.8c0.6,0.6,0.8,1.2,0.8,2v18.2
		C699.9,407.1,699.6,407.8,699.1,408.3z"/>
	<path d="M714.4,552.3c-0.6-0.6-0.8-1.2-0.8-2v-19.2c0-1.3,0.2-2.5,0.7-3.6l53.8-116.9c0.2-0.3,0.2-0.6,0-1
		c-0.2-0.3-0.4-0.5-0.7-0.5h-50.9c-0.8,0-1.5-0.3-2-0.8c-0.6-0.6-0.8-1.2-0.8-2V388c0-0.8,0.3-1.5,0.8-2c0.6-0.6,1.2-0.8,2-0.8h78.7
		c0.8,0,1.5,0.3,2,0.8c0.6,0.6,0.8,1.2,0.8,2v19.2c0,1.1-0.2,2.3-0.7,3.6l-53.8,116.9c-0.2,0.3-0.2,0.6,0,1c0.2,0.3,0.4,0.5,0.7,0.5
		h50.9c0.8,0,1.5,0.3,2,0.8c0.6,0.6,0.8,1.2,0.8,2v18.2c0,0.8-0.3,1.5-0.8,2c-0.6,0.6-1.2,0.8-2,0.8h-78.7
		C715.7,553.2,715,552.9,714.4,552.3z"/>
	<path d="M812.4,492.1c-0.6-0.6-0.8-1.2-0.8-2v-18.2c0-0.8,0.3-1.5,0.8-2c0.6-0.6,1.2-0.8,2-0.8h59.3c0.8,0,1.5,0.3,2,0.8
		c0.6,0.6,0.8,1.2,0.8,2V490c0,0.8-0.3,1.5-0.8,2c-0.6,0.6-1.2,0.8-2,0.8h-59.3C813.6,492.9,812.9,492.6,812.4,492.1z"/>
	<path d="M905.7,542.6c-8.4-8.3-12.6-19.4-12.6-33.1v-80.6c0-13.8,4.2-24.8,12.6-33.1c8.4-8.3,19.5-12.5,33.2-12.5
		c13.8,0,24.9,4.2,33.4,12.5c8.5,8.3,12.7,19.4,12.7,33.1v80.6c0,13.8-4.2,24.8-12.7,33.1c-8.5,8.3-19.6,12.5-33.4,12.5
		C925.2,555.1,914.1,550.9,905.7,542.6z M952.2,525.4c3.4-3.8,5-8.7,5-14.8v-83c0-6.1-1.7-11-5-14.8c-3.4-3.8-7.8-5.6-13.2-5.6
		c-5.4,0-9.8,1.9-13.1,5.6c-3.3,3.8-4.9,8.7-4.9,14.8v83c0,6.1,1.6,11,4.9,14.8c3.3,3.8,7.6,5.6,13.1,5.6
		C944.4,531.1,948.8,529.2,952.2,525.4z"/>
	<path d="M1071.4,550.8l-20.4-68.9c-0.3-0.6-0.7-1-1.2-1h-12.7c-0.8,0-1.2,0.4-1.2,1.2v68.2c0,0.8-0.3,1.5-0.8,2
		c-0.6,0.6-1.2,0.8-2,0.8H1011c-0.8,0-1.5-0.3-2-0.8c-0.6-0.6-0.8-1.2-0.8-2V388c0-0.8,0.3-1.5,0.8-2c0.6-0.6,1.2-0.8,2-0.8h45.1
		c8.5,0,16,2,22.4,6.1c6.5,4.1,11.5,9.8,15.1,17.3c3.6,7.4,5.4,16,5.4,25.6c0,9.9-1.9,18.5-5.8,25.7c-3.8,7.2-9.2,12.6-16.1,16.3
		c-0.6,0.2-0.9,0.6-0.7,1.4l23.5,72.2c0.2,0.3,0.2,0.7,0.2,1.2c0,1.4-0.9,2.2-2.6,2.2h-23C1073,553.2,1071.9,552.4,1071.4,550.8z
		 M1035.9,410.4v47.8c0,0.8,0.4,1.2,1.2,1.2h14.6c5.8,0,10.4-2.2,14-6.7c3.6-4.5,5.4-10.6,5.4-18.2c0-7.7-1.8-13.8-5.4-18.4
		c-3.6-4.6-8.3-6.8-14-6.8h-14.6C1036.3,409.2,1035.9,409.6,1035.9,410.4z"/>
	<path d="M1119.6,552.3c-0.6-0.6-0.8-1.2-0.8-2V388c0-0.8,0.3-1.5,0.8-2c0.6-0.6,1.2-0.8,2-0.8h41c13.8,0,24.8,4.2,33,12.5
		c8.2,8.3,12.4,19.4,12.4,33.4v76.3c0,13.9-4.1,25-12.4,33.4c-8.2,8.3-19.2,12.5-33,12.5h-41
		C1120.8,553.2,1120.1,552.9,1119.6,552.3z M1147.8,529.2l14.4-0.2c5.3,0,9.6-2.1,12.8-6.4c3.3-4.2,5-9.9,5.2-16.9v-73
		c0-7.2-1.6-12.9-4.9-17.2c-3.3-4.2-7.7-6.4-13.3-6.4h-14.2c-0.8,0-1.2,0.4-1.2,1.2V528C1146.6,528.8,1147,529.2,1147.8,529.2z"/>
	<path d="M1314,408.3c-0.6,0.6-1.2,0.8-2,0.8h-51.8c-0.8,0-1.2,0.4-1.2,1.2v45.4c0,0.8,0.4,1.2,1.2,1.2h30.7c0.8,0,1.5,0.3,2,0.8
		c0.6,0.6,0.8,1.2,0.8,2v18.5c0,0.8-0.3,1.5-0.8,2c-0.6,0.6-1.2,0.8-2,0.8h-30.7c-0.8,0-1.2,0.4-1.2,1.2V528c0,0.8,0.4,1.2,1.2,1.2
		h51.8c0.8,0,1.5,0.3,2,0.8c0.6,0.6,0.8,1.2,0.8,2v18.2c0,0.8-0.3,1.5-0.8,2c-0.6,0.6-1.2,0.8-2,0.8h-78c-0.8,0-1.5-0.3-2-0.8
		c-0.6-0.6-0.8-1.2-0.8-2V388c0-0.8,0.3-1.5,0.8-2c0.6-0.6,1.2-0.8,2-0.8h78c0.8,0,1.5,0.3,2,0.8c0.6,0.6,0.8,1.2,0.8,2v18.2
		C1314.8,407.1,1314.5,407.8,1314,408.3z"/>
	<path d="M1398.8,550.8l-20.4-68.9c-0.3-0.6-0.7-1-1.2-1h-12.7c-0.8,0-1.2,0.4-1.2,1.2v68.2c0,0.8-0.3,1.5-0.8,2
		c-0.6,0.6-1.2,0.8-2,0.8h-22.1c-0.8,0-1.5-0.3-2-0.8c-0.6-0.6-0.8-1.2-0.8-2V388c0-0.8,0.3-1.5,0.8-2c0.6-0.6,1.2-0.8,2-0.8h45.1
		c8.5,0,16,2,22.4,6.1c6.5,4.1,11.5,9.8,15.1,17.3c3.6,7.4,5.4,16,5.4,25.6c0,9.9-1.9,18.5-5.8,25.7c-3.8,7.2-9.2,12.6-16.1,16.3
		c-0.6,0.2-0.9,0.6-0.7,1.4l23.5,72.2c0.2,0.3,0.2,0.7,0.2,1.2c0,1.4-0.9,2.2-2.6,2.2h-23C1400.3,553.2,1399.3,552.4,1398.8,550.8z
		 M1363.3,410.4v47.8c0,0.8,0.4,1.2,1.2,1.2h14.6c5.8,0,10.4-2.2,14-6.7c3.6-4.5,5.4-10.6,5.4-18.2c0-7.7-1.8-13.8-5.4-18.4
		c-3.6-4.6-8.3-6.8-14-6.8h-14.6C1363.7,409.2,1363.3,409.6,1363.3,410.4z"/>
	<path d="M1454.5,543.1c-8.2-8-12.2-18.5-12.2-31.4v-6.2c0-0.8,0.3-1.5,0.8-2c0.6-0.6,1.2-0.8,2-0.8h21.8c0.8,0,1.5,0.3,2,0.8
		c0.6,0.6,0.8,1.2,0.8,2v4.8c0,6.2,1.6,11.3,4.7,15.1c3.1,3.8,7.2,5.8,12.1,5.8c5,0,9-1.8,12.2-5.4c3.2-3.6,4.8-8.4,4.8-14.3
		c0-4.2-0.9-7.8-2.6-10.8c-1.8-3-4.2-5.9-7.4-8.6c-3.2-2.7-8.3-6.6-15.4-11.8c-8-5.8-14.4-10.9-19.3-15.4c-4.9-4.5-9-9.9-12.2-16.2
		c-3.3-6.3-4.9-13.6-4.9-22c0-13.3,4-23.8,12-31.7c8-7.8,18.6-11.8,31.7-11.8c13.3,0,24,4.1,32.2,12.4c8.2,8.2,12.2,19.2,12.2,32.8
		v5.8c0,0.8-0.3,1.5-0.8,2c-0.6,0.6-1.2,0.8-2,0.8h-21.6c-0.8,0-1.5-0.3-2-0.8c-0.6-0.6-0.8-1.2-0.8-2v-6.2c0-6.2-1.6-11.2-4.7-15
		c-3.1-3.8-7.2-5.6-12.4-5.6c-4.8,0-8.7,1.7-11.8,5.2c-3,3.4-4.6,8.2-4.6,14.3c0,5.8,1.6,10.6,4.9,14.6c3.3,4,9.7,9.5,19.3,16.6
		c9.8,7.2,17.1,13.1,22.1,17.6c5,4.6,8.8,9.6,11.5,15c2.7,5.4,4.1,11.9,4.1,19.4c0,13.6-4.1,24.5-12.2,32.8
		c-8.2,8.2-18.9,12.4-32.2,12.4C1473.3,555.1,1462.6,551.1,1454.5,543.1z"/>
</g>
<g>
	<path d="M637.6,602.3h-14.7c-0.1,0-0.2,0.1-0.2,0.2v9.9c0,0.1,0.1,0.2,0.2,0.2h10.3c0.3,0,0.4,0.1,0.4,0.4v1.7
		c0,0.3-0.1,0.4-0.4,0.4h-10.3c-0.1,0-0.2,0.1-0.2,0.2v10c0,0.1,0.1,0.2,0.2,0.2h14.7c0.3,0,0.4,0.1,0.4,0.4v1.7
		c0,0.3-0.1,0.4-0.4,0.4h-17.3c-0.3,0-0.4-0.1-0.4-0.4v-27.2c0-0.3,0.1-0.4,0.4-0.4h17.3c0.3,0,0.4,0.1,0.4,0.4v1.7
		C638,602.1,637.9,602.3,637.6,602.3z"/>
	<path d="M662.4,627.5l-8.7-27.2l0-0.2c0-0.2,0.1-0.3,0.4-0.3h2.2c0.2,0,0.4,0.1,0.5,0.3l7.3,23.4c0,0.1,0.1,0.1,0.1,0.1
		c0.1,0,0.1,0,0.1-0.1l7.3-23.4c0.1-0.2,0.2-0.3,0.5-0.3h2.1c0.3,0,0.4,0.1,0.3,0.4l-8.8,27.2c-0.1,0.2-0.2,0.3-0.5,0.3h-2.2
		C662.6,627.8,662.4,627.7,662.4,627.5z"/>
	<path d="M708,602.3h-14.7c-0.1,0-0.2,0.1-0.2,0.2v9.9c0,0.1,0.1,0.2,0.2,0.2h10.3c0.3,0,0.4,0.1,0.4,0.4v1.7c0,0.3-0.1,0.4-0.4,0.4
		h-10.3c-0.1,0-0.2,0.1-0.2,0.2v10c0,0.1,0.1,0.2,0.2,0.2H708c0.3,0,0.4,0.1,0.4,0.4v1.7c0,0.3-0.1,0.4-0.4,0.4h-17.3
		c-0.3,0-0.4-0.1-0.4-0.4v-27.2c0-0.3,0.1-0.4,0.4-0.4H708c0.3,0,0.4,0.1,0.4,0.4v1.7C708.4,602.1,708.2,602.3,708,602.3z"/>
	<path d="M741.6,627.5l-5.9-12.4c0-0.1-0.1-0.1-0.2-0.1h-6.8c-0.1,0-0.2,0.1-0.2,0.2v12.2c0,0.3-0.1,0.4-0.4,0.4h-2
		c-0.3,0-0.4-0.1-0.4-0.4v-27.2c0-0.3,0.1-0.4,0.4-0.4h10.4c2.3,0,4.1,0.7,5.6,2.1c1.4,1.4,2.1,3.3,2.1,5.6c0,1.9-0.5,3.5-1.5,4.8
		c-1,1.3-2.4,2.1-4.1,2.5c-0.1,0.1-0.1,0.1-0.1,0.2l6,12.3c0,0.1,0,0.1,0,0.2c0,0.2-0.1,0.3-0.3,0.3H742
		C741.8,627.8,741.6,627.7,741.6,627.5z M728.6,602.4v10.1c0,0.1,0.1,0.2,0.2,0.2h7.4c1.5,0,2.8-0.5,3.8-1.4c1-1,1.4-2.2,1.4-3.8
		c0-1.5-0.5-2.8-1.4-3.8s-2.2-1.5-3.8-1.5h-7.4C728.6,602.3,728.6,602.3,728.6,602.4z"/>
	<path d="M767.2,627.4v-11.8c0-0.1,0-0.2,0-0.2l-8.3-15c-0.1-0.1-0.1-0.2-0.1-0.2c0-0.2,0.1-0.2,0.4-0.2h2.2c0.2,0,0.4,0.1,0.5,0.3
		l6.7,12.2c0,0,0.1,0,0.1,0c0.1,0,0.1,0,0.1,0l6.8-12.2c0.1-0.2,0.3-0.3,0.5-0.3h2.2c0.2,0,0.3,0,0.3,0.1c0.1,0.1,0,0.2,0,0.3
		l-8.3,15c0,0,0,0.1,0,0.2v11.8c0,0.3-0.1,0.4-0.4,0.4h-2C767.3,627.8,767.2,627.6,767.2,627.4z"/>
	<path d="M794.4,627.4v-27.2c0-0.3,0.1-0.4,0.4-0.4h9.4c2.6,0,4.7,0.7,6.3,2.1s2.3,3.3,2.3,5.6v12.6c0,2.4-0.8,4.3-2.3,5.6
		c-1.6,1.4-3.7,2.1-6.3,2.1h-9.4C794.5,627.8,794.4,627.7,794.4,627.4z M797.4,625.3h7c1.7,0,3.1-0.5,4.1-1.5c1-1,1.5-2.4,1.5-4.1
		v-11.8c0-1.7-0.5-3.1-1.5-4.1c-1-1-2.4-1.5-4.2-1.5h-7c-0.1,0-0.2,0.1-0.2,0.2v22.7C797.2,625.3,797.3,625.3,797.4,625.3z"/>
	<path d="M845.6,627.5l-1.6-5c0-0.1-0.1-0.1-0.2-0.1h-12c-0.1,0-0.1,0-0.2,0.1l-1.6,5c-0.1,0.2-0.2,0.3-0.5,0.3h-2.2
		c-0.3,0-0.4-0.1-0.3-0.4l8.8-27.2c0.1-0.2,0.2-0.3,0.5-0.3h2.7c0.2,0,0.4,0.1,0.5,0.3l8.9,27.2l0,0.2c0,0.2-0.1,0.3-0.4,0.3h-2.2
		C845.8,627.8,845.7,627.7,845.6,627.5z M832.5,619.9c0,0,0.1,0.1,0.1,0.1H843c0.1,0,0.1,0,0.1-0.1s0-0.1,0-0.1l-5.2-16.3
		c0-0.1-0.1-0.1-0.1-0.1c-0.1,0-0.1,0-0.1,0.1l-5.2,16.3C832.5,619.8,832.5,619.9,832.5,619.9z"/>
	<path d="M868.3,627.4v-11.8c0-0.1,0-0.2,0-0.2l-8.3-15c-0.1-0.1-0.1-0.2-0.1-0.2c0-0.2,0.1-0.2,0.4-0.2h2.2c0.2,0,0.4,0.1,0.5,0.3
		l6.7,12.2c0,0,0.1,0,0.1,0c0.1,0,0.1,0,0.1,0l6.8-12.2c0.1-0.2,0.3-0.3,0.5-0.3h2.2c0.2,0,0.3,0,0.3,0.1c0.1,0.1,0,0.2,0,0.3
		l-8.3,15c0,0,0,0.1,0,0.2v11.8c0,0.3-0.1,0.4-0.4,0.4h-2C868.5,627.8,868.3,627.6,868.3,627.4z"/>
	<path d="M919,627c-1.4-0.8-2.6-1.9-3.3-3.3c-0.8-1.4-1.2-3-1.2-4.9v-10.1c0-1.8,0.4-3.5,1.2-4.9c0.8-1.4,1.9-2.5,3.3-3.3
		c1.4-0.8,3.1-1.2,5-1.2c1.9,0,3.6,0.4,5,1.2c1.5,0.8,2.6,1.9,3.4,3.3c0.8,1.4,1.2,3,1.2,4.9v10.1c0,1.8-0.4,3.5-1.2,4.9
		c-0.8,1.4-1.9,2.5-3.4,3.3c-1.5,0.8-3.1,1.2-5,1.2C922.1,628.1,920.5,627.7,919,627z M928.9,623.8c1.2-1.2,1.8-2.9,1.8-4.9v-10.2
		c0-2-0.6-3.7-1.8-4.9c-1.2-1.2-2.9-1.9-4.9-1.9c-2,0-3.6,0.6-4.8,1.9c-1.2,1.2-1.8,2.9-1.8,4.9V619c0,2,0.6,3.7,1.8,4.9
		s2.8,1.8,4.8,1.8C926.1,625.7,927.7,625.1,928.9,623.8z"/>
	<path d="M967.4,627.5l-5.9-12.4c0-0.1-0.1-0.1-0.2-0.1h-6.8c-0.1,0-0.2,0.1-0.2,0.2v12.2c0,0.3-0.1,0.4-0.4,0.4h-2
		c-0.3,0-0.4-0.1-0.4-0.4v-27.2c0-0.3,0.1-0.4,0.4-0.4h10.4c2.3,0,4.1,0.7,5.6,2.1c1.4,1.4,2.1,3.3,2.1,5.6c0,1.9-0.5,3.5-1.5,4.8
		s-2.4,2.1-4.1,2.5c-0.1,0.1-0.1,0.1-0.1,0.2l6,12.3c0,0.1,0,0.1,0,0.2c0,0.2-0.1,0.3-0.3,0.3h-2.1
		C967.6,627.8,967.5,627.7,967.4,627.5z M954.4,602.4v10.1c0,0.1,0.1,0.2,0.2,0.2h7.4c1.5,0,2.8-0.5,3.8-1.4c1-1,1.4-2.2,1.4-3.8
		c0-1.5-0.5-2.8-1.4-3.8s-2.2-1.5-3.8-1.5h-7.4C954.5,602.3,954.4,602.3,954.4,602.4z"/>
	<path d="M987.3,627.4v-27.2c0-0.3,0.1-0.4,0.4-0.4h9.4c2.6,0,4.7,0.7,6.3,2.1c1.6,1.4,2.3,3.3,2.3,5.6v12.6c0,2.4-0.8,4.3-2.3,5.6
		c-1.6,1.4-3.7,2.1-6.3,2.1h-9.4C987.5,627.8,987.3,627.7,987.3,627.4z M990.3,625.3h7c1.7,0,3.1-0.5,4.1-1.5c1-1,1.5-2.4,1.5-4.1
		v-11.8c0-1.7-0.5-3.1-1.5-4.1c-1-1-2.4-1.5-4.2-1.5h-7c-0.1,0-0.2,0.1-0.2,0.2v22.7C990.2,625.3,990.2,625.3,990.3,625.3z"/>
	<path d="M1041,602.3h-14.7c-0.1,0-0.2,0.1-0.2,0.2v9.9c0,0.1,0.1,0.2,0.2,0.2h10.3c0.3,0,0.4,0.1,0.4,0.4v1.7
		c0,0.3-0.1,0.4-0.4,0.4h-10.3c-0.1,0-0.2,0.1-0.2,0.2v10c0,0.1,0.1,0.2,0.2,0.2h14.7c0.3,0,0.4,0.1,0.4,0.4v1.7
		c0,0.3-0.1,0.4-0.4,0.4h-17.3c-0.3,0-0.4-0.1-0.4-0.4v-27.2c0-0.3,0.1-0.4,0.4-0.4h17.3c0.3,0,0.4,0.1,0.4,0.4v1.7
		C1041.4,602.1,1041.3,602.3,1041,602.3z"/>
	<path d="M1074.6,627.5l-5.9-12.4c0-0.1-0.1-0.1-0.2-0.1h-6.8c-0.1,0-0.2,0.1-0.2,0.2v12.2c0,0.3-0.1,0.4-0.4,0.4h-2
		c-0.3,0-0.4-0.1-0.4-0.4v-27.2c0-0.3,0.1-0.4,0.4-0.4h10.4c2.3,0,4.1,0.7,5.6,2.1c1.4,1.4,2.1,3.3,2.1,5.6c0,1.9-0.5,3.5-1.5,4.8
		s-2.4,2.1-4.1,2.5c-0.1,0.1-0.1,0.1-0.1,0.2l6,12.3c0,0.1,0,0.1,0,0.2c0,0.2-0.1,0.3-0.3,0.3h-2.1
		C1074.9,627.8,1074.7,627.7,1074.6,627.5z M1061.6,602.4v10.1c0,0.1,0.1,0.2,0.2,0.2h7.4c1.5,0,2.8-0.5,3.8-1.4
		c1-1,1.4-2.2,1.4-3.8c0-1.5-0.5-2.8-1.4-3.8s-2.2-1.5-3.8-1.5h-7.4C1061.7,602.3,1061.6,602.3,1061.6,602.4z"/>
	<path d="M1094.6,627.4v-27.2c0-0.3,0.1-0.4,0.4-0.4h2c0.3,0,0.4,0.1,0.4,0.4v27.2c0,0.3-0.1,0.4-0.4,0.4h-2
		C1094.7,627.8,1094.6,627.7,1094.6,627.4z"/>
	<path d="M1133.3,599.8h2c0.3,0,0.4,0.1,0.4,0.4v27.2c0,0.3-0.1,0.4-0.4,0.4h-2c-0.2,0-0.3-0.1-0.5-0.3l-13.6-22.2
		c0-0.1-0.1-0.1-0.1-0.1c-0.1,0-0.1,0.1-0.1,0.1l0,22c0,0.3-0.1,0.4-0.4,0.4h-2c-0.3,0-0.4-0.1-0.4-0.4v-27.2c0-0.3,0.1-0.4,0.4-0.4
		h2c0.2,0,0.3,0.1,0.5,0.3l13.6,22.2c0,0.1,0.1,0.1,0.1,0.1c0.1,0,0.1-0.1,0.1-0.1l0-22C1132.9,599.9,1133,599.8,1133.3,599.8z"/>
	<path d="M1158.1,627c-1.4-0.7-2.5-1.8-3.3-3.1c-0.8-1.3-1.2-2.9-1.2-4.6v-11c0-1.7,0.4-3.3,1.2-4.6c0.8-1.3,1.9-2.4,3.3-3.1
		c1.4-0.7,3.1-1.1,4.9-1.1c1.8,0,3.5,0.4,4.9,1.1c1.4,0.7,2.5,1.7,3.3,3c0.8,1.3,1.2,2.8,1.2,4.4v0.5c0,0.3-0.1,0.4-0.4,0.4h-2
		c-0.3,0-0.4-0.1-0.4-0.4V608c0-1.8-0.6-3.2-1.8-4.4s-2.8-1.7-4.7-1.7c-2,0-3.6,0.6-4.8,1.7c-1.2,1.1-1.8,2.7-1.8,4.5v11.2
		c0,1.9,0.6,3.4,1.8,4.5s2.8,1.7,4.8,1.7c1.9,0,3.5-0.5,4.7-1.6c1.2-1.1,1.7-2.5,1.7-4.3v-3.6c0-0.1-0.1-0.2-0.2-0.2h-5.9
		c-0.3,0-0.4-0.1-0.4-0.4v-1.7c0-0.3,0.1-0.4,0.4-0.4h8.5c0.3,0,0.4,0.1,0.4,0.4v5.2c0,2.9-0.8,5.1-2.5,6.7s-4,2.4-6.8,2.4
		C1161.2,628.1,1159.5,627.7,1158.1,627z"/>
	<path d="M1189,630.8c-0.1-0.1-0.1-0.2-0.1-0.3l1.8-8.6c0.1-0.2,0.2-0.4,0.4-0.4h1.8c0.1,0,0.2,0,0.3,0.1c0.1,0.1,0.1,0.2,0.1,0.3
		l-2.2,8.6c-0.1,0.2-0.2,0.4-0.4,0.4h-1.3C1189.2,631,1189.1,630.9,1189,630.8z"/>
	<path d="M1232.1,626.1c-1.7-1.4-2.6-3.2-2.6-5.4v-1.2c0-0.3,0.1-0.4,0.4-0.4h2c0.3,0,0.4,0.1,0.4,0.4v1.1c0,1.5,0.6,2.8,1.9,3.7
		c1.3,0.9,3.1,1.4,5.3,1.4c2.1,0,3.6-0.4,4.7-1.3c1.1-0.9,1.6-2,1.6-3.5c0-0.9-0.2-1.7-0.7-2.4c-0.5-0.7-1.3-1.3-2.3-1.9
		c-1-0.6-2.5-1.3-4.3-2c-2-0.8-3.6-1.5-4.7-2.1c-1.1-0.6-2-1.4-2.7-2.3c-0.7-0.9-1-2.1-1-3.6c0-2.2,0.8-4,2.3-5.2
		c1.6-1.2,3.7-1.9,6.4-1.9c3,0,5.3,0.7,7,2.1c1.7,1.4,2.6,3.2,2.6,5.5v0.9c0,0.3-0.1,0.4-0.4,0.4h-2c-0.3,0-0.4-0.1-0.4-0.4v-0.7
		c0-1.5-0.6-2.8-1.8-3.8c-1.2-1-2.9-1.5-5.1-1.5c-1.9,0-3.3,0.4-4.4,1.2s-1.5,1.9-1.5,3.4c0,1,0.2,1.8,0.7,2.4
		c0.5,0.6,1.2,1.2,2.1,1.6s2.3,1.1,4.3,1.8c1.9,0.8,3.5,1.5,4.7,2.2c1.2,0.7,2.1,1.5,2.9,2.5s1.1,2.2,1.1,3.7c0,2.2-0.8,4-2.5,5.4
		s-3.9,2-6.9,2C1236.2,628.1,1233.8,627.4,1232.1,626.1z"/>
	<path d="M1265.8,627.4v-27.2c0-0.3,0.1-0.4,0.4-0.4h2c0.3,0,0.4,0.1,0.4,0.4v27.2c0,0.3-0.1,0.4-0.4,0.4h-2
		C1265.9,627.8,1265.8,627.7,1265.8,627.4z"/>
	<path d="M1306.1,599.8h2.1c0.3,0,0.4,0.1,0.4,0.4v27.2c0,0.3-0.1,0.4-0.4,0.4h-2c-0.3,0-0.4-0.1-0.4-0.4v-22.2c0-0.1,0-0.1-0.1-0.2
		c-0.1,0-0.1,0-0.1,0.1l-6.5,10c-0.1,0.2-0.3,0.3-0.5,0.3h-1c-0.2,0-0.3-0.1-0.5-0.2l-6.5-9.9c0-0.1-0.1-0.1-0.1-0.1
		s-0.1,0.1-0.1,0.2v22.1c0,0.3-0.1,0.4-0.4,0.4h-2c-0.3,0-0.4-0.1-0.4-0.4v-27.2c0-0.3,0.1-0.4,0.4-0.4h2.1c0.2,0,0.4,0.1,0.5,0.2
		l7.5,11.4c0,0,0.1,0,0.1,0c0.1,0,0.1,0,0.1,0l7.4-11.4C1305.7,599.9,1305.9,599.8,1306.1,599.8z"/>
	<path d="M1343.6,601.9c1.4,1.4,2.1,3.3,2.1,5.7c0,2.3-0.7,4.2-2.2,5.6s-3.4,2.1-5.7,2.1h-7.8c-0.1,0-0.2,0.1-0.2,0.2v11.9
		c0,0.3-0.1,0.4-0.4,0.4h-2c-0.3,0-0.4-0.1-0.4-0.4v-27.2c0-0.3,0.1-0.4,0.4-0.4h10.5C1340.3,599.8,1342.2,600.5,1343.6,601.9z
		 M1341.5,611.5c1-1,1.5-2.3,1.5-3.9c0-1.6-0.5-2.9-1.5-3.9c-1-1-2.3-1.5-3.8-1.5h-7.6c-0.1,0-0.2,0.1-0.2,0.2v10.4
		c0,0.1,0.1,0.2,0.2,0.2h7.6C1339.2,613,1340.5,612.5,1341.5,611.5z"/>
	<path d="M1362.3,627.4v-27.2c0-0.3,0.1-0.4,0.4-0.4h2c0.3,0,0.4,0.1,0.4,0.4v25c0,0.1,0.1,0.2,0.2,0.2h14.1c0.3,0,0.4,0.1,0.4,0.4
		v1.7c0,0.3-0.1,0.4-0.4,0.4h-16.7C1362.4,627.8,1362.3,627.7,1362.3,627.4z"/>
	<path d="M1396.3,627.4v-27.2c0-0.3,0.1-0.4,0.4-0.4h2c0.3,0,0.4,0.1,0.4,0.4v27.2c0,0.3-0.1,0.4-0.4,0.4h-2
		C1396.4,627.8,1396.3,627.7,1396.3,627.4z"/>
	<path d="M1435.6,602.3h-14.7c-0.1,0-0.2,0.1-0.2,0.2v9.9c0,0.1,0.1,0.2,0.2,0.2h10.3c0.3,0,0.4,0.1,0.4,0.4v1.7
		c0,0.3-0.1,0.4-0.4,0.4h-10.3c-0.1,0-0.2,0.1-0.2,0.2v12.3c0,0.3-0.1,0.4-0.4,0.4h-2c-0.3,0-0.4-0.1-0.4-0.4v-27.2
		c0-0.3,0.1-0.4,0.4-0.4h17.3c0.3,0,0.4,0.1,0.4,0.4v1.7C1436,602.1,1435.9,602.3,1435.6,602.3z"/>
	<path d="M1451.9,627.4v-27.2c0-0.3,0.1-0.4,0.4-0.4h2c0.3,0,0.4,0.1,0.4,0.4v27.2c0,0.3-0.1,0.4-0.4,0.4h-2
		C1452,627.8,1451.9,627.7,1451.9,627.4z"/>
	<path d="M1491.3,602.3h-14.7c-0.1,0-0.2,0.1-0.2,0.2v9.9c0,0.1,0.1,0.2,0.2,0.2h10.3c0.3,0,0.4,0.1,0.4,0.4v1.7
		c0,0.3-0.1,0.4-0.4,0.4h-10.3c-0.1,0-0.2,0.1-0.2,0.2v10c0,0.1,0.1,0.2,0.2,0.2h14.7c0.3,0,0.4,0.1,0.4,0.4v1.7
		c0,0.3-0.1,0.4-0.4,0.4H1474c-0.3,0-0.4-0.1-0.4-0.4v-27.2c0-0.3,0.1-0.4,0.4-0.4h17.3c0.3,0,0.4,0.1,0.4,0.4v1.7
		C1491.7,602.1,1491.5,602.3,1491.3,602.3z"/>
	<path d="M1509,627.4v-27.2c0-0.3,0.1-0.4,0.4-0.4h9.4c2.6,0,4.7,0.7,6.3,2.1c1.6,1.4,2.3,3.3,2.3,5.6v12.6c0,2.4-0.8,4.3-2.3,5.6
		c-1.6,1.4-3.7,2.1-6.3,2.1h-9.4C1509.2,627.8,1509,627.7,1509,627.4z M1512,625.3h7c1.7,0,3.1-0.5,4.1-1.5c1-1,1.5-2.4,1.5-4.1
		v-11.8c0-1.7-0.5-3.1-1.5-4.1c-1-1-2.4-1.5-4.2-1.5h-7c-0.1,0-0.2,0.1-0.2,0.2v22.7C1511.9,625.3,1511.9,625.3,1512,625.3z"/>
</g>
</svg>
