<svg xmlns="http://www.w3.org/2000/svg" id="Layer_2" viewBox="0.01 -0.01 604.57 149.17">
	<defs>
		<style>.cls-1{fill:#00d7fb;}</style>
	</defs>
	<g id="Layer_2-2">
		<g>
			<g>
				<path d="M351.34,49.05l-9.13-46.38-.07-.27c0-.41,.25-.62,.75-.62h6.59c.55,0,.85,.25,.89,.75l4.8,28.61c.04,.14,.11,.21,.21,.21s.16-.07,.21-.21l4.32-28.61c.04-.5,.34-.75,.89-.75h5.49c.55,0,.85,.25,.89,.75l4.67,28.61c.04,.14,.11,.21,.21,.21s.16-.07,.21-.21l4.32-28.61c.04-.5,.34-.75,.89-.75h6.38c.59,0,.85,.3,.75,.89l-8.71,46.38c-.05,.5-.34,.75-.89,.75h-5.83c-.55,0-.85-.25-.89-.75l-4.6-29.16c-.05-.18-.12-.27-.21-.27s-.16,.09-.21,.27l-4.25,29.16c-.05,.5-.34,.75-.89,.75h-5.9c-.55,0-.85-.25-.89-.75Z"/>
				<path d="M413.6,8.39c-.16,.16-.35,.24-.58,.24h-14.82c-.23,0-.34,.11-.34,.34v12.97c0,.23,.11,.34,.34,.34h8.78c.23,0,.42,.08,.58,.24,.16,.16,.24,.35,.24,.58v5.28c0,.23-.08,.42-.24,.58-.16,.16-.35,.24-.58,.24h-8.78c-.23,0-.34,.11-.34,.34v13.04c0,.23,.11,.34,.34,.34h14.82c.23,0,.42,.08,.58,.24,.16,.16,.24,.35,.24,.58v5.21c0,.23-.08,.42-.24,.58-.16,.16-.35,.24-.58,.24h-22.3c-.23,0-.42-.08-.58-.24-.16-.16-.24-.35-.24-.58V2.6c0-.23,.08-.42,.24-.58,.16-.16,.35-.24,.58-.24h22.3c.23,0,.42,.08,.58,.24,.16,.16,.24,.35,.24,.58V7.81c0,.23-.08,.42-.24,.58Z"/>
				<path d="M442.22,46.37c-2.45,2.29-5.64,3.43-9.57,3.43h-12.08c-.23,0-.42-.08-.58-.24-.16-.16-.24-.35-.24-.58V2.6c0-.23,.08-.42,.24-.58,.16-.16,.35-.24,.58-.24h10.84c4.35,0,7.75,1.1,10.22,3.29,2.47,2.2,3.71,5.4,3.71,9.61,0,4.71-1.67,8.07-5.01,10.09-.23,.14-.27,.27-.14,.41,1.78,1.14,3.18,2.68,4.19,4.6,1,1.92,1.51,4.21,1.51,6.86,0,4.21-1.22,7.46-3.67,9.74Zm-14.51-37.39v12.76c0,.23,.11,.34,.34,.34h3.5c1.88,0,3.34-.57,4.39-1.72,1.05-1.14,1.58-2.77,1.58-4.87s-.53-3.89-1.58-5.08c-1.05-1.19-2.52-1.78-4.39-1.78h-3.5c-.23,0-.34,.11-.34,.34Zm8.65,31.97c1.05-1.28,1.58-3.09,1.58-5.42s-.53-4.24-1.58-5.59c-1.05-1.35-2.49-2.02-4.32-2.02h-3.98c-.23,0-.34,.11-.34,.34v14.27c0,.23,.11,.34,.34,.34h3.98c1.83,0,3.27-.64,4.32-1.92Z"/>
				<path d="M346.4,115.49c-2.33-2.29-3.5-5.28-3.5-8.99v-1.78c0-.23,.08-.42,.24-.58,.16-.16,.35-.24,.58-.24h6.24c.23,0,.42,.08,.58,.24,.16,.16,.24,.35,.24,.58v1.37c0,1.78,.45,3.23,1.34,4.32s2.05,1.65,3.46,1.65,2.58-.51,3.5-1.54,1.37-2.39,1.37-4.08c0-1.19-.25-2.22-.75-3.09-.5-.87-1.21-1.69-2.13-2.47-.92-.78-2.38-1.9-4.39-3.36-2.29-1.65-4.13-3.11-5.52-4.39-1.4-1.28-2.56-2.82-3.5-4.63-.94-1.81-1.41-3.9-1.41-6.28,0-3.8,1.14-6.82,3.43-9.06,2.29-2.24,5.31-3.36,9.06-3.36s6.86,1.18,9.19,3.53c2.33,2.36,3.5,5.48,3.5,9.37v1.65c0,.23-.08,.42-.24,.58s-.35,.24-.58,.24h-6.18c-.23,0-.42-.08-.58-.24-.16-.16-.24-.35-.24-.58v-1.78c0-1.78-.45-3.21-1.34-4.29-.89-1.08-2.07-1.61-3.53-1.61-1.37,0-2.49,.49-3.36,1.47-.87,.98-1.3,2.34-1.3,4.08,0,1.65,.47,3.04,1.41,4.19s2.78,2.72,5.52,4.73c2.79,2.06,4.89,3.74,6.31,5.04s2.52,2.73,3.29,4.29c.78,1.56,1.17,3.41,1.17,5.56,0,3.89-1.17,7.01-3.5,9.37-2.33,2.36-5.4,3.53-9.19,3.53s-6.86-1.14-9.19-3.43Z"/>
				<path d="M376.83,115.35c-2.4-2.38-3.6-5.53-3.6-9.47v-23.05c0-3.93,1.2-7.09,3.6-9.47,2.4-2.38,5.57-3.57,9.5-3.57s7.11,1.19,9.54,3.57c2.42,2.38,3.64,5.54,3.64,9.47v23.05c0,3.93-1.21,7.09-3.64,9.47-2.42,2.38-5.6,3.57-9.54,3.57s-7.1-1.19-9.5-3.57Zm13.28-4.91c.96-1.07,1.44-2.48,1.44-4.22v-23.74c0-1.74-.48-3.14-1.44-4.22s-2.22-1.61-3.77-1.61-2.8,.54-3.74,1.61c-.94,1.08-1.41,2.48-1.41,4.22v23.74c0,1.74,.47,3.15,1.41,4.22,.94,1.08,2.18,1.61,3.74,1.61s2.81-.54,3.77-1.61Z"/>
				<path d="M406.33,118.13c-.16-.16-.24-.35-.24-.58v-46.38c0-.23,.08-.42,.24-.58,.16-.16,.35-.24,.58-.24h6.31c.23,0,.42,.08,.58,.24,.16,.16,.24,.36,.24,.58v40c0,.23,.11,.34,.34,.34h14.82c.23,0,.42,.08,.58,.24,.16,.16,.24,.35,.24,.58v5.21c0,.23-.08,.42-.24,.58-.16,.16-.35,.24-.58,.24h-22.3c-.23,0-.42-.08-.58-.24Z"/>
				<path d="M437.82,115.11c-2.36-2.54-3.53-5.89-3.53-10.05v-33.9c0-.23,.08-.42,.24-.58,.16-.16,.35-.24,.58-.24h6.31c.23,0,.42,.08,.58,.24,.16,.16,.24,.36,.24,.58v34.72c0,1.83,.46,3.32,1.37,4.46s2.13,1.71,3.64,1.71,2.72-.57,3.64-1.71,1.37-2.63,1.37-4.46v-34.72c0-.23,.08-.42,.24-.58,.16-.16,.35-.24,.58-.24h6.31c.23,0,.42,.08,.58,.24,.16,.16,.24,.36,.24,.58v33.9c0,4.16-1.19,7.51-3.57,10.05-2.38,2.54-5.51,3.81-9.4,3.81s-7.08-1.27-9.43-3.81Z"/>
				<path d="M492.58,70.58c.16,.16,.24,.36,.24,.58v5.21c0,.23-.08,.42-.24,.58-.16,.16-.36,.24-.58,.24h-8.71c-.23,0-.34,.11-.34,.34v40c0,.23-.08,.42-.24,.58-.16,.16-.35,.24-.58,.24h-6.31c-.23,0-.42-.08-.58-.24-.16-.16-.24-.35-.24-.58v-40c0-.23-.11-.34-.34-.34h-8.23c-.23,0-.42-.08-.58-.24s-.24-.35-.24-.58v-5.21c0-.23,.08-.42,.24-.58,.16-.16,.35-.24,.58-.24h25.59c.23,0,.42,.08,.58,.24Z"/>
				<path d="M498.62,118.13c-.16-.16-.24-.35-.24-.58v-46.38c0-.23,.08-.42,.24-.58,.16-.16,.35-.24,.58-.24h6.31c.23,0,.42,.08,.58,.24,.16,.16,.24,.36,.24,.58v46.38c0,.23-.08,.42-.24,.58-.16,.16-.35,.24-.58,.24h-6.31c-.23,0-.42-.08-.58-.24Z"/>
				<path d="M516.52,115.35c-2.4-2.38-3.6-5.53-3.6-9.47v-23.05c0-3.93,1.2-7.09,3.6-9.47,2.4-2.38,5.57-3.57,9.5-3.57s7.11,1.19,9.54,3.57c2.42,2.38,3.64,5.54,3.64,9.47v23.05c0,3.93-1.21,7.09-3.64,9.47-2.42,2.38-5.6,3.57-9.54,3.57s-7.1-1.19-9.5-3.57Zm13.28-4.91c.96-1.07,1.44-2.48,1.44-4.22v-23.74c0-1.74-.48-3.14-1.44-4.22s-2.22-1.61-3.77-1.61-2.8,.54-3.74,1.61c-.94,1.08-1.41,2.48-1.41,4.22v23.74c0,1.74,.47,3.15,1.41,4.22,.94,1.08,2.18,1.61,3.74,1.61s2.81-.54,3.77-1.61Z"/>
				<path d="M565.51,70.58c.16-.16,.35-.24,.58-.24h6.24c.23,0,.42,.08,.58,.24,.16,.16,.24,.36,.24,.58v46.38c0,.23-.08,.42-.24,.58-.16,.16-.35,.24-.58,.24h-7.2c-.46,0-.75-.23-.89-.69l-10.22-29.09c-.05-.14-.13-.19-.24-.17-.11,.02-.17,.1-.17,.24l.07,28.89c0,.23-.08,.42-.24,.58-.16,.16-.35,.24-.58,.24h-6.24c-.23,0-.42-.08-.58-.24-.16-.16-.24-.35-.24-.58v-46.38c0-.23,.08-.42,.24-.58,.16-.16,.35-.24,.58-.24h7.07c.46,0,.75,.23,.89,.69l10.29,28.89c.04,.14,.12,.2,.24,.17s.17-.1,.17-.24v-28.68c0-.23,.08-.42,.24-.58Z"/>
				<path d="M582.7,115.49c-2.33-2.29-3.5-5.28-3.5-8.99v-1.78c0-.23,.08-.42,.24-.58,.16-.16,.35-.24,.58-.24h6.24c.23,0,.42,.08,.58,.24,.16,.16,.24,.35,.24,.58v1.37c0,1.78,.45,3.23,1.34,4.32s2.05,1.65,3.46,1.65,2.58-.51,3.5-1.54,1.37-2.39,1.37-4.08c0-1.19-.25-2.22-.75-3.09-.5-.87-1.21-1.69-2.13-2.47-.92-.78-2.38-1.9-4.39-3.36-2.29-1.65-4.13-3.11-5.52-4.39-1.4-1.28-2.56-2.82-3.5-4.63-.94-1.81-1.41-3.9-1.41-6.28,0-3.8,1.14-6.82,3.43-9.06,2.29-2.24,5.31-3.36,9.06-3.36s6.86,1.18,9.19,3.53c2.33,2.36,3.5,5.48,3.5,9.37v1.65c0,.23-.08,.42-.24,.58s-.35,.24-.58,.24h-6.18c-.23,0-.42-.08-.58-.24-.16-.16-.24-.35-.24-.58v-1.78c0-1.78-.45-3.21-1.34-4.29-.89-1.08-2.07-1.61-3.53-1.61-1.37,0-2.49,.49-3.36,1.47-.87,.98-1.3,2.34-1.3,4.08,0,1.65,.47,3.04,1.41,4.19s2.78,2.72,5.52,4.73c2.79,2.06,4.89,3.74,6.31,5.04s2.52,2.73,3.29,4.29c.78,1.56,1.17,3.41,1.17,5.56,0,3.89-1.17,7.01-3.5,9.37-2.33,2.36-5.4,3.53-9.19,3.53s-6.86-1.14-9.19-3.43Z"/>
			</g>
			<g>
				<path d="M208,138.17h-6.24s-.07,.02-.07,.07v4.2s.02,.07,.07,.07h4.37c.11,0,.17,.06,.17,.17v.71c0,.11-.06,.17-.17,.17h-4.37s-.07,.02-.07,.07v5.22c0,.11-.06,.17-.17,.17h-.87c-.11,0-.17-.06-.17-.17v-11.57c0-.11,.06-.17,.17-.17h7.35c.11,0,.17,.06,.17,.17v.71c0,.11-.06,.17-.17,.17Z"/>
				<path d="M223.29,148.89l-.68-2.14s-.03-.05-.07-.05h-5.09s-.06,.02-.07,.05l-.68,2.14c-.03,.09-.1,.14-.2,.14h-.92c-.12,0-.17-.06-.14-.19l3.76-11.59c.03-.09,.1-.14,.2-.14h1.16c.1,0,.17,.04,.2,.14l3.78,11.59,.02,.07c0,.08-.05,.12-.15,.12h-.92c-.1,0-.17-.04-.2-.14Zm-5.56-3.21s.04,.03,.06,.03h4.39s.04,0,.06-.03,.02-.04,0-.06l-2.21-6.94s-.03-.03-.05-.03-.04,.01-.05,.03l-2.21,6.94s0,.04,0,.06Z"/>
				<path d="M233.7,148.3c-.74-.58-1.11-1.35-1.11-2.31v-.53c0-.11,.06-.17,.17-.17h.83c.11,0,.17,.06,.17,.17v.46c0,.66,.27,1.19,.82,1.59,.54,.4,1.3,.6,2.26,.6,.87,0,1.54-.18,1.99-.55,.45-.37,.68-.86,.68-1.47,0-.4-.1-.74-.31-1.02-.21-.28-.53-.55-.97-.8-.44-.25-1.05-.54-1.85-.87-.85-.34-1.51-.64-1.98-.89-.47-.26-.85-.58-1.14-.99-.29-.4-.43-.91-.43-1.52,0-.95,.33-1.69,1-2.22,.66-.53,1.57-.79,2.73-.79,1.26,0,2.25,.29,2.98,.88,.73,.59,1.09,1.37,1.09,2.35v.37c0,.11-.06,.17-.17,.17h-.85c-.11,0-.17-.06-.17-.17v-.31c0-.66-.26-1.2-.77-1.62-.52-.42-1.23-.63-2.15-.63-.81,0-1.42,.16-1.85,.49s-.65,.81-.65,1.43c0,.41,.1,.75,.31,1.01,.21,.27,.51,.5,.9,.7,.39,.2,1,.46,1.81,.77,.83,.34,1.49,.66,2,.95,.5,.3,.91,.66,1.23,1.08,.31,.42,.47,.94,.47,1.56,0,.95-.35,1.71-1.05,2.28-.7,.57-1.68,.85-2.93,.85s-2.29-.29-3.04-.87Z"/>
				<path d="M257.38,137.29v.73c0,.11-.06,.17-.17,.17h-3.33s-.07,.02-.07,.07v10.6c0,.11-.06,.17-.17,.17h-.87c-.11,0-.17-.06-.17-.17v-10.6s-.02-.07-.07-.07h-3.2c-.11,0-.17-.06-.17-.17v-.73c0-.11,.06-.17,.17-.17h7.88c.11,0,.17,.06,.17,.17Z"/>
				<path d="M266.4,148.72c-.18-.18-.26-.41-.26-.68s.09-.51,.26-.69c.18-.18,.41-.26,.69-.26s.5,.09,.68,.26,.27,.41,.27,.69-.09,.5-.27,.68c-.18,.18-.41,.27-.68,.27s-.51-.09-.69-.27Z"/>
				<path d="M289.17,148.3c-.74-.58-1.11-1.35-1.11-2.31v-.53c0-.11,.06-.17,.17-.17h.83c.11,0,.17,.06,.17,.17v.46c0,.66,.27,1.19,.82,1.59,.54,.4,1.3,.6,2.26,.6,.87,0,1.54-.18,1.99-.55,.45-.37,.68-.86,.68-1.47,0-.4-.11-.74-.31-1.02-.21-.28-.53-.55-.97-.8-.44-.25-1.05-.54-1.85-.87-.85-.34-1.51-.64-1.98-.89-.47-.26-.85-.58-1.14-.99-.29-.4-.43-.91-.43-1.52,0-.95,.33-1.69,1-2.22,.66-.53,1.57-.79,2.73-.79,1.26,0,2.25,.29,2.98,.88,.73,.59,1.09,1.37,1.09,2.35v.37c0,.11-.06,.17-.17,.17h-.85c-.11,0-.17-.06-.17-.17v-.31c0-.66-.26-1.2-.77-1.62-.52-.42-1.23-.63-2.15-.63-.81,0-1.42,.16-1.86,.49-.43,.33-.65,.81-.65,1.43,0,.41,.11,.75,.32,1.01,.21,.27,.51,.5,.9,.7s1,.46,1.81,.77c.83,.34,1.49,.66,2,.95,.5,.3,.91,.66,1.23,1.08,.31,.42,.47,.94,.47,1.56,0,.95-.35,1.71-1.05,2.28-.7,.57-1.68,.85-2.93,.85s-2.29-.29-3.04-.87Z"/>
				<path d="M305.86,148.86v-11.57c0-.11,.06-.17,.17-.17h.87c.11,0,.17,.06,.17,.17v11.57c0,.11-.06,.17-.17,.17h-.87c-.11,0-.17-.06-.17-.17Z"/>
				<path d="M325.34,137.12h.88c.11,0,.17,.06,.17,.17v11.57c0,.11-.06,.17-.17,.17h-.87c-.11,0-.17-.06-.17-.17v-9.46s-.01-.06-.03-.07-.04,0-.05,.03l-2.77,4.25c-.06,.08-.12,.12-.2,.12h-.44c-.08,0-.15-.03-.21-.1l-2.77-4.22s-.03-.04-.05-.03c-.02,.01-.03,.03-.03,.07v9.41c0,.11-.06,.17-.17,.17h-.87c-.11,0-.17-.06-.17-.17v-11.57c0-.11,.06-.17,.17-.17h.88c.09,0,.16,.03,.2,.1l3.2,4.85s.03,.02,.05,.02,.04,0,.05-.02l3.17-4.83c.06-.08,.12-.12,.2-.12Z"/>
				<path d="M343.66,138.02c.61,.61,.91,1.42,.91,2.42s-.31,1.78-.93,2.38-1.43,.9-2.44,.9h-3.32s-.07,.02-.07,.07v5.07c0,.11-.06,.17-.17,.17h-.87c-.11,0-.17-.06-.17-.17v-11.59c0-.11,.06-.17,.17-.17h4.48c1,0,1.8,.31,2.41,.92Zm-.91,4.08c.42-.41,.63-.96,.63-1.64s-.21-1.25-.63-1.67c-.42-.42-.96-.63-1.63-.63h-3.23s-.07,.02-.07,.07v4.42s.02,.07,.07,.07h3.23c.67,0,1.21-.21,1.63-.62Z"/>
				<path d="M353.95,148.86v-11.57c0-.11,.06-.17,.17-.17h.87c.11,0,.17,.06,.17,.17v10.62s.02,.07,.07,.07h6.01c.11,0,.17,.06,.17,.17v.71c0,.11-.06,.17-.17,.17h-7.11c-.11,0-.17-.06-.17-.17Z"/>
				<path d="M378.3,138.17h-6.26s-.07,.02-.07,.07v4.2s.02,.07,.07,.07h4.39c.11,0,.17,.06,.17,.17v.71c0,.11-.06,.17-.17,.17h-4.39s-.07,.02-.07,.07v4.27s.02,.07,.07,.07h6.26c.11,0,.17,.06,.17,.17v.71c0,.11-.06,.17-.17,.17h-7.37c-.11,0-.17-.06-.17-.17v-11.57c0-.11,.06-.17,.17-.17h7.37c.11,0,.17,.06,.17,.17v.71c0,.11-.06,.17-.17,.17Z"/>
				<path d="M388.26,148.72c-.18-.18-.26-.41-.26-.68s.09-.51,.26-.69,.41-.26,.69-.26,.5,.09,.68,.26c.18,.18,.27,.41,.27,.69s-.09,.5-.27,.68-.41,.27-.68,.27-.51-.09-.69-.27Z"/>
				<path d="M417.56,138.02c.61,.61,.91,1.42,.91,2.42s-.31,1.78-.93,2.38-1.43,.9-2.44,.9h-3.32s-.07,.02-.07,.07v5.07c0,.11-.06,.17-.17,.17h-.87c-.11,0-.17-.06-.17-.17v-11.59c0-.11,.06-.17,.17-.17h4.48c1,0,1.8,.31,2.41,.92Zm-.91,4.08c.42-.41,.63-.96,.63-1.64s-.21-1.25-.63-1.67c-.42-.42-.96-.63-1.63-.63h-3.23s-.07,.02-.07,.07v4.42s.02,.07,.07,.07h3.23c.67,0,1.21-.21,1.63-.62Z"/>
				<path d="M434.59,148.91l-2.5-5.28s-.03-.05-.07-.05h-2.89s-.07,.02-.07,.07v5.21c0,.11-.06,.17-.17,.17h-.87c-.11,0-.17-.06-.17-.17v-11.57c0-.11,.06-.17,.17-.17h4.41c.98,0,1.76,.3,2.37,.91s.9,1.4,.9,2.37c0,.79-.22,1.47-.65,2.02-.43,.56-1.02,.91-1.75,1.07-.05,.02-.06,.05-.03,.08l2.55,5.24s.02,.05,.02,.08c0,.08-.04,.12-.14,.12h-.9c-.1,0-.17-.04-.2-.12Zm-5.53-10.67v4.3s.02,.07,.07,.07h3.17c.66,0,1.19-.2,1.6-.61,.41-.41,.61-.94,.61-1.6s-.2-1.19-.61-1.61-.94-.62-1.6-.62h-3.17s-.07,.02-.07,.07Z"/>
				<path d="M446.96,148.67c-.61-.33-1.09-.79-1.42-1.39-.33-.6-.5-1.29-.5-2.07v-4.29c0-.78,.17-1.47,.5-2.07,.33-.6,.81-1.06,1.42-1.39,.61-.33,1.32-.49,2.13-.49s1.52,.17,2.14,.49c.62,.33,1.09,.79,1.43,1.39s.5,1.28,.5,2.07v4.29c0,.78-.17,1.47-.5,2.07s-.81,1.06-1.43,1.39c-.62,.33-1.33,.49-2.14,.49s-1.51-.16-2.13-.49Zm4.2-1.33c.52-.52,.78-1.21,.78-2.08v-4.36c0-.86-.26-1.56-.78-2.08-.52-.53-1.21-.79-2.08-.79s-1.54,.26-2.06,.79-.78,1.22-.78,2.08v4.36c0,.86,.26,1.55,.78,2.08s1.21,.78,2.06,.78,1.55-.26,2.08-.78Z"/>
				<path d="M470.66,138.17h-6.25s-.07,.02-.07,.07v4.2s.02,.07,.07,.07h4.37c.11,0,.17,.06,.17,.17v.71c0,.11-.06,.17-.17,.17h-4.37s-.07,.02-.07,.07v5.22c0,.11-.06,.17-.17,.17h-.87c-.11,0-.17-.06-.17-.17v-11.57c0-.11,.06-.17,.17-.17h7.35c.11,0,.17,.06,.17,.17v.71c0,.11-.06,.17-.17,.17Z"/>
				<path d="M487.49,138.17h-6.26s-.07,.02-.07,.07v4.2s.02,.07,.07,.07h4.39c.11,0,.17,.06,.17,.17v.71c0,.11-.06,.17-.17,.17h-4.39s-.07,.02-.07,.07v4.27s.02,.07,.07,.07h6.26c.11,0,.17,.06,.17,.17v.71c0,.11-.06,.17-.17,.17h-7.37c-.11,0-.17-.06-.17-.17v-11.57c0-.11,.06-.17,.17-.17h7.37c.11,0,.17,.06,.17,.17v.71c0,.11-.06,.17-.17,.17Z"/>
				<path d="M497.79,148.3c-.74-.58-1.11-1.35-1.11-2.31v-.53c0-.11,.06-.17,.17-.17h.83c.11,0,.17,.06,.17,.17v.46c0,.66,.27,1.19,.82,1.59,.54,.4,1.3,.6,2.26,.6,.87,0,1.54-.18,1.99-.55,.45-.37,.68-.86,.68-1.47,0-.4-.11-.74-.31-1.02-.21-.28-.53-.55-.97-.8-.44-.25-1.05-.54-1.85-.87-.85-.34-1.51-.64-1.98-.89-.47-.26-.85-.58-1.14-.99-.29-.4-.43-.91-.43-1.52,0-.95,.33-1.69,1-2.22,.66-.53,1.57-.79,2.73-.79,1.26,0,2.25,.29,2.98,.88,.73,.59,1.09,1.37,1.09,2.35v.37c0,.11-.06,.17-.17,.17h-.85c-.11,0-.17-.06-.17-.17v-.31c0-.66-.26-1.2-.77-1.62-.52-.42-1.23-.63-2.15-.63-.81,0-1.42,.16-1.86,.49-.43,.33-.65,.81-.65,1.43,0,.41,.11,.75,.32,1.01,.21,.27,.51,.5,.9,.7s1,.46,1.81,.77c.83,.34,1.49,.66,2,.95,.5,.3,.91,.66,1.23,1.08,.31,.42,.47,.94,.47,1.56,0,.95-.35,1.71-1.05,2.28-.7,.57-1.68,.85-2.93,.85s-2.29-.29-3.04-.87Z"/>
				<path d="M514.88,148.3c-.74-.58-1.11-1.35-1.11-2.31v-.53c0-.11,.06-.17,.17-.17h.83c.11,0,.17,.06,.17,.17v.46c0,.66,.27,1.19,.82,1.59,.54,.4,1.3,.6,2.26,.6,.87,0,1.54-.18,1.99-.55,.45-.37,.68-.86,.68-1.47,0-.4-.11-.74-.31-1.02-.21-.28-.53-.55-.97-.8-.44-.25-1.05-.54-1.85-.87-.85-.34-1.51-.64-1.98-.89-.47-.26-.85-.58-1.14-.99-.29-.4-.43-.91-.43-1.52,0-.95,.33-1.69,1-2.22,.66-.53,1.57-.79,2.73-.79,1.26,0,2.25,.29,2.98,.88,.73,.59,1.09,1.37,1.09,2.35v.37c0,.11-.06,.17-.17,.17h-.85c-.11,0-.17-.06-.17-.17v-.31c0-.66-.26-1.2-.77-1.62-.52-.42-1.23-.63-2.15-.63-.81,0-1.42,.16-1.86,.49-.43,.33-.65,.81-.65,1.43,0,.41,.11,.75,.32,1.01,.21,.27,.51,.5,.9,.7s1,.46,1.81,.77c.83,.34,1.49,.66,2,.95,.5,.3,.91,.66,1.23,1.08,.31,.42,.47,.94,.47,1.56,0,.95-.35,1.71-1.05,2.28-.7,.57-1.68,.85-2.93,.85s-2.29-.29-3.04-.87Z"/>
				<path d="M531.56,148.86v-11.57c0-.11,.06-.17,.17-.17h.87c.11,0,.17,.06,.17,.17v11.57c0,.11-.06,.17-.17,.17h-.87c-.11,0-.17-.06-.17-.17Z"/>
				<path d="M544.66,148.67c-.61-.33-1.09-.79-1.42-1.39-.33-.6-.5-1.29-.5-2.07v-4.29c0-.78,.17-1.47,.5-2.07,.33-.6,.81-1.06,1.42-1.39,.61-.33,1.32-.49,2.13-.49s1.52,.17,2.14,.49c.62,.33,1.09,.79,1.43,1.39s.5,1.28,.5,2.07v4.29c0,.78-.17,1.47-.5,2.07s-.81,1.06-1.43,1.39c-.62,.33-1.33,.49-2.14,.49s-1.51-.16-2.13-.49Zm4.2-1.33c.52-.52,.78-1.21,.78-2.08v-4.36c0-.86-.26-1.56-.78-2.08-.52-.53-1.21-.79-2.08-.79s-1.54,.26-2.06,.79-.78,1.22-.78,2.08v4.36c0,.86,.26,1.55,.78,2.08s1.21,.78,2.06,.78,1.55-.26,2.08-.78Z"/>
				<path d="M568.11,137.12h.87c.11,0,.17,.06,.17,.17v11.57c0,.11-.06,.17-.17,.17h-.85c-.08,0-.15-.04-.2-.12l-5.8-9.44s-.03-.05-.05-.04c-.02,0-.03,.03-.03,.06l.02,9.38c0,.11-.06,.17-.17,.17h-.87c-.11,0-.17-.06-.17-.17v-11.57c0-.11,.06-.17,.17-.17h.85c.08,0,.15,.04,.21,.12l5.8,9.44s.03,.05,.05,.04c.02,0,.03-.03,.03-.06l-.02-9.38c0-.11,.06-.17,.17-.17Z"/>
				<path d="M586.35,148.89l-.68-2.14s-.03-.05-.07-.05h-5.09s-.06,.02-.07,.05l-.68,2.14c-.03,.09-.1,.14-.2,.14h-.92c-.12,0-.17-.06-.14-.19l3.76-11.59c.03-.09,.1-.14,.2-.14h1.16c.1,0,.17,.04,.2,.14l3.78,11.59,.02,.07c0,.08-.05,.12-.15,.12h-.92c-.1,0-.17-.04-.2-.14Zm-5.56-3.21s.04,.03,.06,.03h4.39s.04,0,.06-.03c.02-.02,.02-.04,0-.06l-2.21-6.94s-.03-.03-.05-.03-.04,.01-.05,.03l-2.21,6.94s0,.04,0,.06Z"/>
				<path d="M596.97,148.86v-11.57c0-.11,.06-.17,.17-.17h.87c.11,0,.17,.06,.17,.17v10.62s.02,.07,.07,.07h6.01c.11,0,.17,.06,.17,.17v.71c0,.11-.06,.17-.17,.17h-7.11c-.11,0-.17-.06-.17-.17Z"/>
			</g>
			<g>
				<path d="M259.71,21.67c-.39,.39-.87,.59-1.42,.59h-34.98c-.56,0-.84,.28-.84,.84v26.44c0,.56,.28,.84,.84,.84h20.08c.56,0,1.03,.2,1.42,.59,.39,.39,.59,.87,.59,1.42v16.23c0,.56-.2,1.03-.59,1.42-.39,.39-.87,.59-1.42,.59h-20.08c-.56,0-.84,.28-.84,.84v26.61c0,.56,.28,.84,.84,.84h34.98c.56,0,1.03,.2,1.42,.59,.39,.39,.59,.87,.59,1.42v16.23c0,.56-.2,1.03-.59,1.42-.39,.39-.87,.59-1.42,.59h-57.4c-.56,0-1.03-.19-1.42-.59-.39-.39-.59-.86-.59-1.42V4.02c0-.56,.19-1.03,.59-1.42,.39-.39,.86-.59,1.42-.59h57.4c.56,0,1.03,.2,1.42,.59,.39,.39,.59,.87,.59,1.42V20.25c0,.56-.2,1.03-.59,1.42Z"/>
				<path d="M268.75,118.57c-.39-.39-.59-.86-.59-1.42v-16.9c0-.89,.17-1.73,.5-2.51l35.81-74.47c.11-.33,.11-.59,0-.75-.11-.17-.33-.25-.67-.25h-33.64c-.56,0-1.03-.19-1.42-.59-.39-.39-.59-.86-.59-1.42V4.02c0-.56,.19-1.03,.59-1.42,.39-.39,.86-.59,1.42-.59h57.57c.56,0,1.03,.2,1.42,.59,.39,.39,.59,.87,.59,1.42V20.92c0,.78-.17,1.62-.5,2.51l-35.81,74.47c-.11,.33-.11,.58,0,.75,.11,.17,.33,.25,.67,.25h33.64c.56,0,1.03,.2,1.42,.59,.39,.39,.59,.87,.59,1.42v16.23c0,.56-.2,1.03-.59,1.42-.39,.39-.87,.59-1.42,.59h-57.57c-.56,0-1.03-.19-1.42-.59Z"/>
			</g>
			<g>
				<path class="cls-1" d="M144.47,136.33c.82-.71,1.86-1.51,2.18-1.24,.72,1.93,.25,3.85-1.28,5.7-1.55,1.38-2.98,2.6-4.79,4.06,1.42-1.7,1.85-3.48,1.19-5.26,.04-.88,2.69-3.24,2.72-3.26"/>
				<path class="cls-1" d="M99.63,119.93c2.58,.56,1.62,4.18,.02,5.3-.49,.35-.88,.37-1.23,.4-4.95-.35-10.07-.53-15.23-.52,.42-2.01,.4-3.78-.09-5.74,5.6-.02,11.16,.17,16.53,.56"/>
				<path class="cls-1" d="M138.42,131.01c.65-.64,1.86-1.69,2.75-1.44,1.85,1.11,3.25,2.26,4.21,3.41,.48,1.51-4.24,5.11-4.8,4.67-.88-1.06-2.17-2.11-3.87-3.14-.8-.91,1.69-3.47,1.71-3.5"/>
				<path class="cls-1" d="M133.11,128.94c.18-.23,1.86-2.19,3.09-1.83,.6,.25,1.19,.5,1.74,.76,1.34,.84-1.71,4.61-3.61,5.08-.32,.08-.46,.04-.61-.01-.52-.24-1.05-.47-1.61-.7-.87-.49,.14-2.29,.99-3.3"/>
				<path class="cls-1" d="M104.13,122.66c.27-.61,1.06-2.03,2.7-2.08,9.41,1.02,17.96,2.67,24.77,4.86,1.69,.97-1.14,4.72-3.03,5.24-.2,.06-.49,.05-.69,.03-6.27-2.02-14.16-3.54-22.83-4.48-2.12-.56-.94-3.53-.92-3.56"/>
				<path class="cls-1" d="M73.63,122.16c-.08-1.16,.32-3.17,2.38-3.37,3.23,.1,3.93,4.73,2.19,6.51-1.67,1.69-4.35-.16-4.57-3.13m-4.46-.33c.55,4.24,4.18,9.9,8.83,9.47,6.64-1.38,7.47-13.65,1.18-17.49-4.85-2.96-10.94,.76-10,8.02"/>
				<path class="cls-1" d="M147.53,107.39c.57-.96,1.5-2.05,2.67-1.79,1.5,.66,2.89,1.35,4.15,2.07,1.55,.88,2.87,1.78,3.96,2.68-1.22,1.85-2.23,3.65-3.26,5.85-1.04-.87-2.3-1.72-3.79-2.57-1.21-.68-2.53-1.35-3.97-1.98-1.57-1.11,.22-4.24,.24-4.28"/>
				<path class="cls-1" d="M71,98.35c.06-.71,.42-2.4,2.54-2.72,8.62-.32,17.29-.23,25.66,.23-.77,2.19-.97,4.19-.66,6.48-8-.44-16.29-.53-24.53-.23-3.15-.25-3.01-3.74-3.01-3.78"/>
				<path class="cls-1" d="M47.02,100.69c-.06-.71,0-2.42,1.94-2.94,.36-.05,.72-.1,1.08-.15,4.59-.61,9.29-1.09,14.04-1.45,3.44,.16,3.82,4.36,2.31,5.82-.48,.47-1,.57-1.43,.65-4.54,.33-9.04,.79-13.43,1.38-.35,.05-.69,.09-1.03,.14-3.03,.05-3.49-3.42-3.49-3.46"/>
				<path class="cls-1" d="M133.07,102.98c.5-1,1.41-2.17,2.95-2.03,2.92,.72,5.66,1.51,8.2,2.36,2.23,1.21,.14,5.6-1.85,6.15-.23,.06-.56,.04-.79,0-2.43-.81-5.05-1.57-7.84-2.25-1.87-.79-1.09-3.39-.66-4.23"/>
				<path class="cls-1" d="M114.41,103.37c1.32-2.87,1.23-5.27,1.21-6.05,4.07,.5,8,1.1,11.74,1.79,2.75,.92,1.35,5-.48,6.05-.59,.33-1.04,.31-1.42,.3-3.57-.66-7.32-1.23-11.22-1.71,.05-.11,.13-.25,.18-.37"/>
				<path class="cls-1" d="M36.92,102.87c-.26-1.02-.27-2.88,1.38-3.33,1.07-.22,2.17-.42,3.3-.63,2.79-.31,4.46,3.99,2.88,5.78-.37,.42-.77,.52-1.01,.58-1.07,.19-2.12,.4-3.15,.6-1.76,.23-3.05-1.62-3.4-2.99"/>
				<path class="cls-1" d="M158.44,114.36c.69-1.13,2.02-2.89,2.62-2.33,.92,1.68-2.84,7.54-4.03,7.31-.8-.16,.11-2.86,1.41-4.98m-1.64-1.54c-1.48,2.61-5.33,10.42-3.57,12.04,3.46,1.31,12.62-14.27,10.89-18.52-.84-2.05-4.12,.85-7.32,6.48"/>
				<path class="cls-1" d="M103.84,99.03c.28-1.29,1.41-3.46,3.82-3.39,3.34,.51,3.45,5.33,.88,7.36-2.43,1.93-5.24-.17-4.78-3.56,.01-.13,.05-.29,.07-.41m-5.35-.35c-.59,4.44,1.35,11.11,7.36,11.34,8.61-.56,13.2-13.96,6.64-19.38-5.24-4.33-12.96,.11-14.01,8.04"/>
				<path class="cls-1" d="M133.74,76.6c.21-.72,.92-2.37,2.83-2.24,7.66,1.61,14.45,3.58,19.98,5.89-.78,2.16-1.21,4.23-1.38,6.7-5.43-2.27-12.09-4.21-19.6-5.78-2.77-.98-1.84-4.54-1.83-4.58"/>
				<path class="cls-1" d="M109.19,73.27c.18-.73,.85-2.45,3.07-2.51,5.4,.52,10.61,1.18,15.57,1.98,3.08,.92,2.75,5.24,.72,6.51-.59,.37-1.12,.35-1.55,.34-4.86-.78-9.98-1.44-15.27-1.94-3.28-.71-2.54-4.35-2.53-4.38"/>
				<path class="cls-1" d="M68.44,72.6c.11-.76,.61-2.55,2.97-2.91,5.77-.23,11.56-.3,17.29-.21,3.61,.47,3.79,4.8,1.64,6.35-.62,.45-1.23,.51-1.73,.56-5.62-.08-11.3-.02-16.96,.2-3.57-.25-3.21-3.96-3.2-3.99"/>
				<path class="cls-1" d="M61.81,70.23c3.83,.16,3.9,4.62,2.09,6.19-.59,.5-1.19,.61-1.67,.71-5.2,.38-10.34,.9-15.36,1.58-4.16,.56-8.09,1.2-11.76,1.92,.18-2.48-.11-4.58-.94-6.82,3.74-.73,7.74-1.38,11.99-1.95,5.11-.68,10.35-1.22,15.64-1.61"/>
				<path class="cls-1" d="M170.47,94.61c.49-1.77,.66-1.84,.73-1.87,.01,.04,.03,.08,.04,.11,.1,.76,.06,1.52-.1,2.27-.54,2.1-1.18,4.92-1.8,6.99,.28-.93,.37-1.86,.25-2.8-.03-1.32,.88-4.68,.89-4.71"/>
				<path class="cls-1" d="M169.93,89.47c.59,1.5-.52,6.46-1.5,6.64-.04-.04-.09-.08-.13-.11-.88-1.37-2.21-2.72-4-4.06,.85-2.1,1.33-4.14,1.55-6.61,1.83,1.37,3.18,2.75,4.08,4.15"/>
				<path class="cls-1" d="M96.33,72.81c.13-1.09,.95-2.96,3.15-2.97,1.4,.07,2.79,.16,4.18,.24,3.1,.38,3.7,4.47,1.57,6.25-.8,.66-1.57,.66-1.95,.66-1.36-.09-2.73-.17-4.11-.24-2.28-.25-3.04-2.45-2.86-3.93"/>
				<path class="cls-1" d="M159.18,84.63c.35-1.3,1.3-3.34,2.68-2.76,2.46,1.66,.84,8.19-1.24,8.43-1.48,.17-2.22-2.75-1.45-5.67m-3.45-1.55c-1.06,4.74-.92,12.15,2.73,13.78,6.13,1.6,9.53-14.61,5.83-20.32-2.67-4.11-6.9-.87-8.56,6.54"/>
				<path class="cls-1" d="M23.97,79.23c-.12-1.28,.2-3.88,2.33-4.57,3.23-.56,4.74,4.69,2.86,7.36-1.64,2.34-4.57,1-5.14-2.36-.02-.13-.04-.3-.06-.44m-4.41,.56c.65,6.06,4.88,11.47,10.15,9.84,8.35-3.63,6.34-19.21-.9-21.69-5.3-1.82-10.06,4.27-9.25,11.86"/>
				<path class="cls-1" d="M20.73,53.19c.14-.74,.65-2.55,2.41-3.27,4.93-1.32,10.5-2.49,16.64-3.48-.73,2.39-.81,4.45-.24,6.72-6.17,.99-11.77,2.17-16.73,3.5-2.31,.28-2.23-2.66-2.08-3.46"/>
				<path class="cls-1" d="M64.83,46.34c.16-.72,.77-2.44,3.19-2.82,9.72-.5,19.56-.52,29.12-.12-.63,2.24-.61,4.31,.06,6.7-9.6-.41-19.49-.38-29.26,.12-3.21-.18-3.25-3.11-3.09-3.89"/>
				<path class="cls-1" d="M139.29,54.81c.59-2.98-.12-5.51-.35-6.34,6.19,1.36,11.78,2.96,16.58,4.79,2.57,1.41,2.65,6.21,1.1,6.77-.21,.08-.53,.02-.75-.02-4.82-1.83-10.44-3.45-16.67-4.81,.03-.12,.06-.28,.08-.39"/>
				<path class="cls-1" d="M6.49,58.62c.11-.76,.51-2.59,1.73-3.42,2.18-1.04,4.64-2.04,7.37-2.98,2.43-.44,2.07,3.97,.78,5.78-.43,.6-.67,.73-1.15,.97-2.75,.95-5.22,1.95-7.41,3-1.55,.41-1.47-2.35-1.32-3.34"/>
				<path class="cls-1" d="M.05,63.2c.1-1.02,.49-3.12,1.26-3.85,.48-.38,.99-.76,1.54-1.12,1.09-.59,1.26,2.46,.56,4.9-.4,1.4-.85,1.76-.99,1.88-.55,.37-1.07,.75-1.55,1.13-.79,.5-.95-1.46-.81-2.94"/>
				<path class="cls-1" d="M160.12,57.76c.01-.25,.15-2.38,1.43-1.88,.04,.01,5.05,2.4,8.06,5.55,2.17,2.26,2.45,3.44,2.96,5.6,.15,2.22,.42,5.17,.48,7.4-.08-3.58-3.01-7.23-9.07-10.67-.66-.37-1.34-.74-2.05-1.1-1.64-1.16-1.85-4.16-1.82-4.89"/>
				<path class="cls-1" d="M45.13,48.51c.17-1.33,1.19-3.7,3.98-4.18,3.78-.25,4.83,4.06,2.52,6.8-2.34,2.77-6.31,1.71-6.53-1.76-.01-.25,0-.6,.03-.85m-5.94,.88c-.36,4.88,2.82,11.46,10.76,10.07,9.95-2.85,11.9-16.15,5.04-20.39-6.32-3.9-15.19,1.88-15.81,10.32"/>
				<path class="cls-1" d="M102.92,46.59c.11-1.3,1.02-3.49,3.75-3.43,3.9,.5,5.04,5.46,2.55,7.57-2.6,2.21-6.6-.42-6.29-4.14m-6.25-.32c-.14,4.84,3.28,12.08,11.07,12.22,9.96-.95,11.33-13.93,4.18-19.5-6.46-5.03-15.02-.95-15.26,7.28"/>
				<path class="cls-1" d="M127.62,49.22c.06-1.29,.82-3.41,3.22-3.14,3.7,.87,4.65,6.25,2.15,7.98-2.29,1.59-5.55-1.35-5.38-4.84m-5.62-1.49c-.29,5.23,2.94,12.92,9.74,13.75,8.91,.18,10.15-12.38,3.8-18.87-5.63-5.74-13.1-2.93-13.54,5.11"/>
				<path class="cls-1" d="M166.28,42.51c-.21-.52-.42-1.04-.64-1.56l.85,2,1.58,4.14-.04-.12c-.32-.87-1.09-2.82-1.74-4.47"/>
				<path class="cls-1" d="M82.96,25.58c.79-2.52,.16-4.46-.06-5.09,7.29-.03,14.52,.22,21.52,.73,3.34,.55,3.95,3.98,2.15,5.09-.54,.33-1.11,.35-1.57,.36-7.2-.52-14.65-.77-22.15-.75,.04-.1,.08-.23,.11-.33"/>
				<path class="cls-1" d="M158.07,35.26c-.14-.48-.52-1.99,.43-1.51,2.41,1.45,4.23,2.94,5.47,4.43,.94,1.31,2.6,5.26,2.54,6.05-.02,0-.04,.01-.06,.02-.04-.04-.08-.08-.12-.11-1.28-1.55-3.15-3.07-5.64-4.57-1.68-1.28-2.62-4.28-2.63-4.31"/>
				<path class="cls-1" d="M151.21,32.39c-.25-.87-.36-2.24,.82-1.83,.78,.32,1.54,.66,2.27,.99,2.06,1.1,3.7,5.41,2.63,5.83-.19,.08-.37,0-.56-.06-.75-.35-1.53-.68-2.34-1.02-1.36-.66-2.47-2.67-2.82-3.9"/>
				<path class="cls-1" d="M111.43,23.91c.04-.56,.35-1.88,2.36-1.86,12.24,1.33,23.39,3.47,32.25,6.32,2.71,1.2,3.86,5.23,2.54,5.69-.2,.07-.5,.01-.71-.03-9.13-2.94-20.6-5.14-33.21-6.51-3.27-.67-3.22-3.58-3.22-3.61"/>
				<path class="cls-1" d="M69.89,23.14c.2-1.07,1.26-2.93,3.92-3.14,3.66,.04,4.61,3.61,2.33,5.69-2.48,2.27-6.54,.85-6.29-2.2,0-.11,.03-.25,.05-.35m-5.86-.2c-1.13,4.98,2.68,10.16,9.95,9.63,9.54-1.42,12.14-11.3,6.19-15.79-5.96-4.51-14.71-.18-16.14,6.16"/>
				<path class="cls-1" d="M142.09,13.21c-.63-.94-.47-1.14-.41-1.22,.12,0,.28,.03,.4,.06,1.31,.58,2.53,1.18,3.63,1.81,1.35,.77,2.51,1.55,3.46,2.34,1.22,1.43,2.34,2.81,3.87,4.75-1.01-.84-2.23-1.67-3.67-2.48-1.17-.66-2.46-1.31-3.85-1.92-1.81-.97-3.43-3.32-3.44-3.34"/>
				<path class="cls-1" d="M72.36,4.98c.18-.42,.82-1.43,2.71-1.64,7.54-.28,15.12-.2,22.43,.2-.23,1.32,0,2.55,.77,3.99-7.75-.43-15.79-.52-23.77-.22-2.52-.11-2.38-1.76-2.13-2.33"/>
				<path class="cls-1" d="M50.52,7.1c.31-.44,1.23-1.52,3.08-1.93,.31-.04,.63-.08,.95-.13,4.01-.54,8.12-.96,12.27-1.26,2.48,.01,2.31,1.91,1.28,2.94-.85,.83-1.91,.99-2.36,1.07-4.4,.32-8.76,.77-13.01,1.34-.34,.04-.67,.09-1,.13-2.31,.13-1.63-1.56-1.21-2.16"/>
				<path class="cls-1" d="M128.91,9.2c-.29-.64-.39-1.38,.77-1.21,2.55,.63,4.95,1.32,7.16,2.06,2.41,1.02,4.49,4.09,3.68,4.42-.15,.06-.38,0-.54-.04-2.35-.79-4.89-1.52-7.59-2.19-2.38-.8-3.46-3.03-3.48-3.05"/>
				<path class="cls-1" d="M122.11,6.37c2.63,.71,4.18,3.3,3.27,4.02-.28,.21-.68,.18-1.02,.14-3.46-.64-7.1-1.19-10.87-1.66-.04-1.38-.54-2.63-1.64-4.06,3.56,.44,6.99,.96,10.26,1.57"/>
				<path class="cls-1" d="M41.09,9.02c.43-.62,1.65-1.89,3.19-2.27,.94-.19,1.9-.37,2.88-.55,1.72-.23,1.55,1.16,.67,2.27-.28,.35-1.31,1.52-2.93,1.88-1.04,.19-2.06,.38-3.06,.58-1.62,.25-1.42-.97-.76-1.91"/>
				<path class="cls-1" d="M152.28,19.54c-.43-.52-.86-1.03-1.3-1.54l.36,.41c1.32,1.63,3.13,3.77,4.38,5.45-.3-.39-1.91-2.46-3.44-4.33m-1.51-1.4c2.5,3.04,4.04,5.08,8.63,11.12,.03,.04,.06,.08,.08,.11-4.95-7.25-5.05-7.39-8.15-10.96-1.42-1.52-3.27-3.58-4.75-5.05l.02,.02c1.05,1.07,2.46,2.67,4.16,4.75"/>
				<path class="cls-1" d="M102.35,5.52c-.11-.76,.26-2.03,2.29-1.93,3.09,.4,4.83,3.39,3.3,4.59-1.67,1.31-5.28-.41-5.59-2.66m-4.89-.32c.5,3.56,4.64,7.59,10.45,7.91,6.35-.12,7.02-5.27,3.1-9.26-5.33-5.41-13.6-5.05-13.61,.6,0,.22,.02,.52,.06,.75"/>
			</g>
		</g>
	</g>
</svg>